<?xml version="1.0" encoding="UTF-8"?>
<svg version="1.1" xmlns="http://www.w3.org/2000/svg" width="512" height="512">
<path d="M0 0 C0.87946289 0.00193359 1.75892578 0.00386719 2.66503906 0.00585938 C8.89899241 0.04725043 15.06133816 0.330126 21.25 1.125 C21.25 1.785 21.25 2.445 21.25 3.125 C21.92804688 3.10179687 22.60609375 3.07859375 23.3046875 3.0546875 C29.94812074 2.92586746 35.81496876 3.53062444 42.25 5.125 C42.94722168 5.29161133 43.64444336 5.45822266 44.36279297 5.62988281 C53.07102756 7.72333012 61.53055656 9.81790364 69.58984375 13.81640625 C72.71539155 15.35393711 75.90663587 16.6681413 79.125 18 C91.89129608 23.50103726 102.10294296 29.92966821 112.62524414 38.9074707 C114.40869769 40.24392192 116.23374744 41.18459288 118.25 42.125 C118.25 42.785 118.25 43.445 118.25 44.125 C119.9 44.785 121.55 45.445 123.25 46.125 C123.25 46.785 123.25 47.445 123.25 48.125 C124.054375 48.393125 124.85875 48.66125 125.6875 48.9375 C126.533125 49.329375 127.37875 49.72125 128.25 50.125 C128.58 51.115 128.91 52.105 129.25 53.125 C130.86838719 54.83858643 132.54671681 56.4957726 134.25 58.125 C135.46098609 59.33067474 136.66922398 60.53911476 137.875 61.75 C138.72964844 62.60464844 138.72964844 62.60464844 139.6015625 63.4765625 C140.14554687 64.02054688 140.68953125 64.56453125 141.25 65.125 C141.79011719 65.62386719 142.33023437 66.12273437 142.88671875 66.63671875 C144.89567601 68.8298784 145.43616235 71.30786967 146.25 74.125 C146.91 74.125 147.57 74.125 148.25 74.125 C150.96942083 76.37147808 152.48401509 79.10810912 154.25 82.125 C154.9615625 83.053125 154.9615625 83.053125 155.6875 84 C161.25 91.565 161.25 91.565 161.25 96.125 C161.91 96.125 162.57 96.125 163.25 96.125 C170.79640486 108.8731043 170.79640486 108.8731043 171.0859375 116.1640625 C171.30025601 118.72567899 172.34047666 120.76829582 173.421875 123.07421875 C177.57625323 133.3621837 178.33952454 144.91827416 178.203125 155.8984375 C178.18145241 160.78648539 178.77293303 165.58534856 179.3125 170.4375 C180.81998219 184.95700049 180.81998219 184.95700049 179.25 192.125 C178.92 192.455 178.59 192.785 178.25 193.125 C177.94643 195.54153742 177.683874 197.9525998 177.4375 200.375 C176.47635229 208.91287511 175.08814485 217.86778273 170.25 225.125 C169.59 225.125 168.93 225.125 168.25 225.125 C168.03354687 219.23266491 168.24924713 213.66150701 169.25 207.84375 C170.52056404 199.29703661 170.47234185 190.87301874 170.375 182.25 C170.36493595 180.67578703 170.35581623 179.10156774 170.34765625 177.52734375 C170.32594651 173.72640179 170.29161198 169.92577401 170.25 166.125 C170.12882812 167.17300781 170.00765625 168.22101563 169.8828125 169.30078125 C169.71396055 170.67973886 169.54466659 172.05864239 169.375 173.4375 C169.29636719 174.12779297 169.21773438 174.81808594 169.13671875 175.52929688 C168.69056153 179.08139471 168.27019807 181.0947029 166.25 184.125 C165.92 182.475 165.59 180.825 165.25 179.125 C164.92 180.115 164.59 181.105 164.25 182.125 C163.26 182.125 162.27 182.125 161.25 182.125 C161.14977539 181.50681396 161.04955078 180.88862793 160.94628906 180.25170898 C158.94286427 168.0142361 156.79667076 156.02139748 153.25 144.125 C152.86548553 142.76443587 152.48138569 141.4037545 152.09765625 140.04296875 C150.03736196 132.91656839 147.63644088 126.369184 143.875 119.93359375 C141.91025554 116.53779743 140.13369242 113.06826155 138.375 109.5625 C137.77945312 108.38558594 137.18390625 107.20867187 136.5703125 105.99609375 C135.25 103.125 135.25 103.125 135.25 101.125 C134.59 101.125 133.93 101.125 133.25 101.125 C131.734375 99.21875 131.734375 99.21875 130 96.625 C126.86919437 92.02317134 123.62514966 87.54931641 120.25 83.125 C119.59 82.2175 118.93 81.31 118.25 80.375 C115.8873303 77.71699659 113.20661252 76.07367643 110.25 74.125 C110.25 73.465 110.25 72.805 110.25 72.125 C109.59 72.125 108.93 72.125 108.25 72.125 C106.56183067 70.48011706 104.89646685 68.81162458 103.25 67.125 C102.26 66.465 101.27 65.805 100.25 65.125 C100.25 64.465 100.25 63.805 100.25 63.125 C99.66895508 62.84124512 99.08791016 62.55749023 98.48925781 62.26513672 C96.41267486 61.20782726 94.42111135 60.07863152 92.421875 58.8828125 C91.34486328 58.24279297 91.34486328 58.24279297 90.24609375 57.58984375 C88.76365896 56.70553917 87.28187373 55.82014467 85.80078125 54.93359375 C77.32695036 49.89554188 77.32695036 49.89554188 68.25 46.125 C68.25 45.465 68.25 44.805 68.25 44.125 C67.46625 44.0425 66.6825 43.96 65.875 43.875 C61.072355 42.88134931 56.75190511 41.03786482 52.25 39.125 C52.25 38.465 52.25 37.805 52.25 37.125 C51.239375 37.021875 50.22875 36.91875 49.1875 36.8125 C44.87960971 36.27692445 40.63122577 35.46892873 36.375 34.625 C35.37521118 34.42910278 35.37521118 34.42910278 34.35522461 34.22924805 C29.49753818 33.24876909 29.49753818 33.24876909 27.25 32.125 C24.39053599 31.88398378 21.55234441 31.69876095 18.6875 31.5625 C17.83849121 31.5207666 16.98948242 31.4790332 16.11474609 31.43603516 C7.81830258 31.0581529 -0.44739893 30.9582811 -8.75 31.125 C-9.78640625 31.13015625 -10.8228125 31.1353125 -11.890625 31.140625 C-33.2141833 31.92211667 -53.56736607 40.64093871 -71.70092773 51.28051758 C-76.5597618 54.125 -76.5597618 54.125 -78.75 54.125 C-78.75 54.785 -78.75 55.445 -78.75 56.125 C-80.07 56.455 -81.39 56.785 -82.75 57.125 C-82.75 57.785 -82.75 58.445 -82.75 59.125 C-84.172778 60.09947665 -85.60092086 61.06715504 -87.05664062 61.99169922 C-114.20200628 80.1590561 -132.026974 114.32192987 -138.53295898 145.57226562 C-138.95873094 147.75336295 -139.36008062 149.9372307 -139.75 152.125 C-139.87246094 152.78532227 -139.99492187 153.44564453 -140.12109375 154.12597656 C-142.2229762 165.88116745 -141.72175669 177.2848491 -140.75 189.125 C-140.59724609 191.07212891 -140.59724609 191.07212891 -140.44140625 193.05859375 C-138.86951228 207.85384315 -134.57064978 222.90343273 -127.75 236.125 C-127.07517578 237.55972656 -127.07517578 237.55972656 -126.38671875 239.0234375 C-123.21577348 245.67302085 -119.51644381 251.69423187 -115.2890625 257.7265625 C-113.75 260.125 -113.75 260.125 -113.75 262.125 C-113.09 262.125 -112.43 262.125 -111.75 262.125 C-111.42 263.445 -111.09 264.765 -110.75 266.125 C-110.09 266.125 -109.43 266.125 -108.75 266.125 C-107.38343747 267.70480635 -106.08264868 269.34168653 -104.8125 271 C-97.36205253 280.2891797 -88.63956302 287.5470106 -78.75 294.125 C-77.43322266 295.07826172 -77.43322266 295.07826172 -76.08984375 296.05078125 C-67.53814742 302.10872294 -58.42256816 306.18342847 -48.75 310.125 C-46.9865625 310.85396484 -46.9865625 310.85396484 -45.1875 311.59765625 C-18.571226 321.86124304 11.64863346 322.5527155 39.25 316.125 C40.44238281 315.87105469 41.63476562 315.61710937 42.86328125 315.35546875 C58.07894458 311.77627405 72.40004795 304.95679244 85.25 296.125 C88.10799674 294.34157987 90.97296922 292.5698835 93.83984375 290.80078125 C96.2734396 289.10870245 98.1857524 287.24172847 100.25 285.125 C101.90948148 284.11312105 103.57580562 283.1123454 105.25 282.125 C105.806875 281.568125 106.36375 281.01125 106.9375 280.4375 C107.370625 280.004375 107.80375 279.57125 108.25 279.125 C108.91 279.125 109.57 279.125 110.25 279.125 C109.70912682 282.91111227 108.13277668 284.67900767 105.25 287.125 C104.59 287.125 103.93 287.125 103.25 287.125 C103.25 287.785 103.25 288.445 103.25 289.125 C102.26 289.125 101.27 289.125 100.25 289.125 C99.92 290.115 99.59 291.105 99.25 292.125 C98.59 292.785 97.93 293.445 97.25 294.125 C99.71229997 293.40754644 99.71229997 293.40754644 102.25 292.125 C102.559375 291.485625 102.86875 290.84625 103.1875 290.1875 C104.75577198 287.14320734 107.21914446 286.57981066 110.25 285.125 C111.60197858 283.81057638 112.94026002 282.4815164 114.25 281.125 C114.91 281.125 115.57 281.125 116.25 281.125 C116.58 280.135 116.91 279.145 117.25 278.125 C118.25 277.125 119.25 276.125 120.25 275.125 C120.86875 274.17625 121.4875 273.2275 122.125 272.25 C124.24889612 269.12662335 126.55289673 266.75467569 129.25 264.125 C129.971875 263.196875 130.69375 262.26875 131.4375 261.3125 C132.035625 260.590625 132.63375 259.86875 133.25 259.125 C133.91 259.125 134.57 259.125 135.25 259.125 C136.24 256.155 137.23 253.185 138.25 250.125 C139.24 250.125 140.23 250.125 141.25 250.125 C140.76351734 255.2137631 138.98202858 258.76275751 136.1875 262.9375 C135.58675659 263.85390259 135.58675659 263.85390259 134.97387695 264.78881836 C131.9720332 269.27355046 128.66880132 273.3426143 124.97265625 277.28125 C123.06675071 279.2646437 123.06675071 279.2646437 120.875 282.1875 C120.33875 282.826875 119.8025 283.46625 119.25 284.125 C118.59 284.125 117.93 284.125 117.25 284.125 C116.96125 284.90875 116.6725 285.6925 116.375 286.5 C115.25 289.125 115.25 289.125 113.25 291.125 C113.91 291.125 114.57 291.125 115.25 291.125 C114.5 293.5625 114.5 293.5625 113.25 296.125 C111.125 296.9375 111.125 296.9375 109.25 297.125 C109.25 297.785 109.25 298.445 109.25 299.125 C106.2697088 301.25377943 103.19163348 303.16047769 100.0625 305.0625 C97.12727499 307.21499834 96.0757625 309.05439943 94.25 312.125 C92.0625 312.9375 92.0625 312.9375 90.25 313.125 C90.25 313.785 90.25 314.445 90.25 315.125 C83.64422939 320.10855703 75.89191724 323.12896357 68.25 326.125 C67.36957031 326.4859375 66.48914063 326.846875 65.58203125 327.21875 C56.5180425 330.92866167 47.50720454 333.65924864 37.9375 335.75 C36.00384613 336.17941685 34.07025003 336.60909398 32.13671875 337.0390625 C31.29326904 337.2242041 30.44981934 337.4093457 29.58081055 337.60009766 C27.46154856 338.07735892 25.35487846 338.58824235 23.25 339.125 C37.24957102 337.03878942 51.06695399 334.36048518 64.25 329.125 C65.301875 328.795 66.35375 328.465 67.4375 328.125 C70.45327312 327.05272511 73.19667228 325.70710604 76.02734375 324.22265625 C78.25 323.125 78.25 323.125 81.36328125 321.91015625 C86.45585222 319.75249465 90.9205757 316.56633966 95.5 313.5 C97.27404101 312.317306 99.04999945 311.13748165 100.828125 309.9609375 C101.60575195 309.44063965 102.38337891 308.9203418 103.18457031 308.38427734 C105.25 307.125 105.25 307.125 108.25 306.125 C108.25 305.465 108.25 304.805 108.25 304.125 C110.22946592 302.76136792 112.2319245 301.43081356 114.25 300.125 C114.8275 299.5475 115.405 298.97 116 298.375 C116.4125 297.9625 116.825 297.55 117.25 297.125 C117.91 297.125 118.57 297.125 119.25 297.125 C119.25 296.465 119.25 295.805 119.25 295.125 C119.91 295.125 120.57 295.125 121.25 295.125 C121.25 294.465 121.25 293.805 121.25 293.125 C122.90532623 292.10633771 124.57260138 291.10689187 126.25 290.125 C126.58 289.465 126.91 288.805 127.25 288.125 C128.24 288.125 129.23 288.125 130.25 288.125 C130.518125 287.485625 130.78625 286.84625 131.0625 286.1875 C132.25 284.125 132.25 284.125 135.25 283.125 C134.92 284.445 134.59 285.765 134.25 287.125 C135.3946875 285.8875 135.3946875 285.8875 136.5625 284.625 C139.25 282.125 139.25 282.125 142.25 282.125 C142.25 281.465 142.25 280.805 142.25 280.125 C142.91 280.125 143.57 280.125 144.25 280.125 C142.86961693 283.05667071 141.29174667 285.63806023 139.375 288.25 C138.88257813 288.93320312 138.39015625 289.61640625 137.8828125 290.3203125 C136.25 292.125 136.25 292.125 134.1171875 293.1796875 C131.89008453 294.03215221 131.89008453 294.03215221 131.25 297.125 C130.59 297.125 129.93 297.125 129.25 297.125 C129.25 298.115 129.25 299.105 129.25 300.125 C125.91666667 303.125 125.91666667 303.125 123.25 303.125 C123.25 303.785 123.25 304.445 123.25 305.125 C121.55214424 306.35677771 119.84955843 307.5828818 118.1171875 308.765625 C116.03390057 310.20830107 116.03390057 310.20830107 113.6875 312.6875 C111.07155116 315.30344884 108.41814022 317.22411587 105.25 319.125 C104.59 319.125 103.93 319.125 103.25 319.125 C103.01925781 319.7334375 102.78851563 320.341875 102.55078125 320.96875 C100.88620826 323.72804216 99.35947868 324.32828982 96.4375 325.625 C92.59944974 327.41905244 89.4246659 329.26780069 86.25 332.125 C88.23 331.795 90.21 331.465 92.25 331.125 C89.80211085 335.19604145 87.02379995 336.37334426 82.6875 338.125 C82.05763184 338.3813623 81.42776367 338.63772461 80.77880859 338.90185547 C78.93840884 339.64918068 77.09427498 340.38729001 75.25 341.125 C73.97189453 341.68574219 73.97189453 341.68574219 72.66796875 342.2578125 C66.97633628 344.72063132 61.15043487 346.21274359 55.12890625 347.62109375 C51.34352173 348.52644937 47.89780927 349.60439706 44.375 351.25 C38.26966461 353.92042971 31.69336041 354.15162501 25.12890625 354.73046875 C21.34213219 354.9728407 21.34213219 354.9728407 18.25 356.125 C-14.12828957 358.05645979 -44.66356489 352.13546371 -73.75585938 337.86132812 C-77.4108124 336.10227767 -80.68039799 334.66068435 -84.75 334.125 C-84.75 333.465 -84.75 332.805 -84.75 332.125 C-85.53375 331.939375 -86.3175 331.75375 -87.125 331.5625 C-92.23771508 329.53504402 -96.32893852 326.35138566 -100.75 323.125 C-101.74 322.465 -102.73 321.805 -103.75 321.125 C-103.75 320.465 -103.75 319.805 -103.75 319.125 C-105.07 318.795 -106.39 318.465 -107.75 318.125 C-107.75 317.465 -107.75 316.805 -107.75 316.125 C-109.0803125 315.7846875 -109.0803125 315.7846875 -110.4375 315.4375 C-115.22396853 313.54097473 -117.72357464 310.46246335 -120.8125 306.4375 C-122.71214367 304.17018336 -124.03265723 303.19252752 -126.75 302.125 C-126.75 301.135 -126.75 300.145 -126.75 299.125 C-127.41 299.125 -128.07 299.125 -128.75 299.125 C-131.22364687 297.26976485 -131.78947616 296.001637 -132.75 293 C-133.08 292.05125 -133.41 291.1025 -133.75 290.125 C-134.74 289.795 -135.73 289.465 -136.75 289.125 C-137.78013277 287.47678756 -138.78114628 285.80996298 -139.75 284.125 C-140.41 283.795 -141.07 283.465 -141.75 283.125 C-142.76351664 281.46651823 -143.76120795 279.79834039 -144.75 278.125 C-145.41 277.320625 -146.07 276.51625 -146.75 275.6875 C-149.59155193 272.04676159 -151.75 268.81462744 -151.75 264.125 C-152.74 263.795 -153.73 263.465 -154.75 263.125 C-155.08 261.145 -155.41 259.165 -155.75 257.125 C-156.41 257.125 -157.07 257.125 -157.75 257.125 C-158.08 254.485 -158.41 251.845 -158.75 249.125 C-159.41 249.125 -160.07 249.125 -160.75 249.125 C-164.81498554 240.36798327 -168.07163893 231.37687015 -171.0390625 222.1953125 C-171.74155359 220.06642186 -171.74155359 220.06642186 -172.734375 217.828125 C-178.79709356 201.69196636 -177.06463048 183.04405245 -176.75 166.125 C-176.09 166.125 -175.43 166.125 -174.75 166.125 C-174.77320313 165.07441406 -174.79640625 164.02382812 -174.8203125 162.94140625 C-175.03003122 149.51620632 -175.03003122 149.51620632 -173.3828125 143.4609375 C-172.54712585 140.37611889 -171.94694066 137.25713334 -171.3125 134.125 C-169.66111082 126.43234787 -167.79696805 119.86994675 -163.75 113.125 C-163.358125 111.866875 -162.96625 110.60875 -162.5625 109.3125 C-157.780654 94.36923126 -148.72891268 81.2798365 -139.375 68.875 C-138.94590332 68.30112549 -138.51680664 67.72725098 -138.07470703 67.13598633 C-137.01548107 65.75983827 -135.88815069 64.43662347 -134.75 63.125 C-134.09 63.125 -133.43 63.125 -132.75 63.125 C-132.75 62.465 -132.75 61.805 -132.75 61.125 C-132.09 61.125 -131.43 61.125 -130.75 61.125 C-130.4096875 60.0421875 -130.4096875 60.0421875 -130.0625 58.9375 C-128.48664872 55.56067583 -126.54123384 53.56732961 -123.75 51.125 C-123.09 51.125 -122.43 51.125 -121.75 51.125 C-121.4921875 50.53203125 -121.234375 49.9390625 -120.96875 49.328125 C-119.65230105 46.94839035 -118.32419218 45.61521208 -116.25 43.875 C-115.33734375 43.09382813 -115.33734375 43.09382813 -114.40625 42.296875 C-112.75 41.125 -112.75 41.125 -110.75 41.125 C-110.75 40.465 -110.75 39.805 -110.75 39.125 C-109.01451831 37.67973264 -107.21024037 36.3162778 -105.375 35 C-104.37726563 34.27554688 -103.37953125 33.55109375 -102.3515625 32.8046875 C-99.75 31.125 -99.75 31.125 -97.75 31.125 C-97.75 30.465 -97.75 29.805 -97.75 29.125 C-97.07453125 28.81046875 -96.3990625 28.4959375 -95.703125 28.171875 C-90.28348388 25.68394693 -90.28348388 25.68394693 -85.6875 22 C-83.27718689 19.66743893 -80.80636128 18.99431145 -77.640625 18.03515625 C-73.96125346 16.87665143 -70.36086167 15.5424607 -66.75 14.1875 C-66.04512451 13.92485352 -65.34024902 13.66220703 -64.61401367 13.39160156 C-61.09557906 12.06606518 -57.68722923 10.66434015 -54.3125 9 C-44.62982934 4.5496956 -33.28662801 2.88643601 -22.75 2.125 C-20.74690671 1.81078929 -18.74628664 1.4798954 -16.75 1.125 C-11.1169044 0.16342699 -5.69377263 -0.03018282 0 0 Z M163.25 156.125 C164.25 158.125 164.25 158.125 164.25 158.125 Z M164.25 164.125 C164.25 165.775 164.25 167.425 164.25 169.125 C164.58 169.125 164.91 169.125 165.25 169.125 C165.25 167.475 165.25 165.825 165.25 164.125 C164.92 164.125 164.59 164.125 164.25 164.125 Z M132.25 288.125 C131.26 289.61 131.26 289.61 130.25 291.125 C131.24 290.795 132.23 290.465 133.25 290.125 C132.92 289.465 132.59 288.805 132.25 288.125 Z M107.25 294.125 C106.26 295.61 106.26 295.61 105.25 297.125 C106.24 297.125 107.23 297.125 108.25 297.125 C107.92 296.135 107.59 295.145 107.25 294.125 Z M90.25 297.125 C90.25 297.785 90.25 298.445 90.25 299.125 C89.1671875 299.24875 89.1671875 299.24875 88.0625 299.375 C84.65678783 300.28318991 82.94949062 301.88639802 80.25 304.125 C78.27288349 305.16951438 76.27749004 306.18198138 74.25 307.125 C75.24 307.62 75.24 307.62 76.25 308.125 C80.65941371 306.48340009 84.55216614 304.001093 88.25 301.125 C89.24 300.795 90.23 300.465 91.25 300.125 C91.25 299.465 91.25 298.805 91.25 298.125 C92.57 297.795 93.89 297.465 95.25 297.125 C95.25 296.465 95.25 295.805 95.25 295.125 C92.92642489 294.94009993 92.92642489 294.94009993 90.25 297.125 Z M103.25 297.125 C103.58 297.785 103.91 298.445 104.25 299.125 C104.58 298.465 104.91 297.805 105.25 297.125 C104.59 297.125 103.93 297.125 103.25 297.125 Z M69.25 309.125 C67.47809091 310.47944301 67.47809091 310.47944301 66.25 312.125 C68.56 311.465 70.87 310.805 73.25 310.125 C71.41299211 309.35257731 71.41299211 309.35257731 69.25 309.125 Z M60.25 313.125 C60.58 313.785 60.91 314.445 61.25 315.125 C61.91 314.465 62.57 313.805 63.25 313.125 C62.26 313.125 61.27 313.125 60.25 313.125 Z M43.25 319.125 C47.25 320.125 47.25 320.125 47.25 320.125 Z M30.25 322.125 C30.25 322.455 30.25 322.785 30.25 323.125 C31.9 323.125 33.55 323.125 35.25 323.125 C35.25 322.795 35.25 322.465 35.25 322.125 C33.6 322.125 31.95 322.125 30.25 322.125 Z M25.25 323.125 C25.25 323.455 25.25 323.785 25.25 324.125 C26.9 324.125 28.55 324.125 30.25 324.125 C30.25 323.795 30.25 323.465 30.25 323.125 C28.6 323.125 26.95 323.125 25.25 323.125 Z M13.25 324.125 C12.26 324.785 11.27 325.445 10.25 326.125 C11.57 326.125 12.89 326.125 14.25 326.125 C13.92 325.465 13.59 324.805 13.25 324.125 Z M-31.75 336.125 C-31.09 336.785 -30.43 337.445 -29.75 338.125 C-29.42 337.465 -29.09 336.805 -28.75 336.125 C-29.74 336.125 -30.73 336.125 -31.75 336.125 Z M-26.75 337.125 C-26.75 337.455 -26.75 337.785 -26.75 338.125 C-25.1 338.125 -23.45 338.125 -21.75 338.125 C-21.75 337.795 -21.75 337.465 -21.75 337.125 C-23.4 337.125 -25.05 337.125 -26.75 337.125 Z M-21.75 338.125 C-21.75 338.455 -21.75 338.785 -21.75 339.125 C-18.07612505 339.97798376 -14.7052607 340.23289471 -10.9375 340.1875 C-9.96167969 340.17847656 -8.98585937 340.16945313 -7.98046875 340.16015625 C-7.24441406 340.14855469 -6.50835937 340.13695312 -5.75 340.125 C-5.75 339.795 -5.75 339.465 -5.75 339.125 C-11.03 338.795 -16.31 338.465 -21.75 338.125 Z M62.25 341.125 C66.25 342.125 66.25 342.125 66.25 342.125 Z M58.25 342.125 C62.25 343.125 62.25 343.125 62.25 343.125 Z M51.25 344.125 C51.25 344.455 51.25 344.785 51.25 345.125 C52.9 345.125 54.55 345.125 56.25 345.125 C56.25 344.795 56.25 344.465 56.25 344.125 C54.6 344.125 52.95 344.125 51.25 344.125 Z M38.5 346.5625 C37.80261719 346.71009766 37.10523438 346.85769531 36.38671875 347.00976562 C34.6727979 347.37368033 32.96115419 347.74829068 31.25 348.125 C31.25 348.455 31.25 348.785 31.25 349.125 C37.82791873 348.71455515 43.99051886 348.25891403 50.25 346.125 C46.22985339 344.56045841 42.55074319 345.66276026 38.5 346.5625 Z M-26.75 347.125 C-22.75 348.125 -22.75 348.125 -22.75 348.125 Z M-7.75 348.125 C-8.41 348.785 -9.07 349.445 -9.75 350.125 C-8.68354885 351.42133621 -8.68354885 351.42133621 -6.1875 351.1875 C-5.383125 351.166875 -4.57875 351.14625 -3.75 351.125 C-4.72850195 350.10395449 -5.72980427 349.1043879 -6.75 348.125 C-7.08 348.125 -7.41 348.125 -7.75 348.125 Z M26.25 349.125 C30.25 350.125 30.25 350.125 30.25 350.125 Z M0.25 350.125 C0.25 350.455 0.25 350.785 0.25 351.125 C4.21 351.125 8.17 351.125 12.25 351.125 C12.25 350.795 12.25 350.465 12.25 350.125 C8.29 350.125 4.33 350.125 0.25 350.125 Z " fill="#0F498A" transform="translate(222.75,51.875)"/>
<path d="M0 0 C0 0.66 0 1.32 0 2 C0.53625 2.2475 1.0725 2.495 1.625 2.75 C7.3420598 5.75897884 11.05730588 8.99171288 15 14 C15.47050781 14.45503906 15.94101562 14.91007812 16.42578125 15.37890625 C18.37990529 17.39121761 19.90265355 19.5700571 21.5 21.875 C22.0878125 22.71804687 22.675625 23.56109375 23.28125 24.4296875 C23.8484375 25.27789062 24.415625 26.12609375 25 27 C25.5053125 27.72445312 26.010625 28.44890625 26.53125 29.1953125 C30.4856866 36.74660366 31.5776832 44.78933582 32.25 53.1875 C32.38535156 54.60579102 32.38535156 54.60579102 32.5234375 56.05273438 C32.97122724 61.23481722 32.98078712 65.85405198 32 71 C31.85820312 71.92425781 31.71640625 72.84851563 31.5703125 73.80078125 C31.42335938 74.62964844 31.27640625 75.45851563 31.125 76.3125 C30.98320312 77.15425781 30.84140625 77.99601562 30.6953125 78.86328125 C30 81 30 81 27 83 C27.33 77.06 27.66 71.12 28 65 C26.68 65 25.36 65 24 65 C23.84144531 64.05640625 23.68289063 63.1128125 23.51953125 62.140625 C21.53902355 51.24236165 18.06983107 41.88617058 13 32 C12.67 31.01 12.34 30.02 12 29 C11.34 29 10.68 29 10 29 C6 23.58823529 6 23.58823529 6 21 C5.16275391 20.62101562 5.16275391 20.62101562 4.30859375 20.234375 C1.65324562 18.81459495 -0.55860768 17.09587735 -2.9375 15.25 C-16.12224338 5.62775682 -32.54714941 -0.13746866 -48.98095703 2.29296875 C-58.57995934 3.87053838 -66.52494696 6.13241945 -74.71484375 11.51171875 C-77 13 -77 13 -80 14 C-80 14.66 -80 15.32 -80 16 C-81.49609375 17.4375 -81.49609375 17.4375 -83.4375 19 C-86.15188238 21.14525044 -86.15188238 21.14525044 -88 24 C-88.66 24 -89.32 24 -90 24 C-90.27972656 24.72703125 -90.55945313 25.4540625 -90.84765625 26.203125 C-91.92147882 28.80941978 -93.12902013 31.2553281 -94.4375 33.75 C-102.01682675 48.79686402 -103.23650779 64.91166544 -98 81 C-95.96696985 86.90666374 -93.57419921 91.89400113 -90 97 C-90 97.66 -90 98.32 -90 99 C-89.34 99 -88.68 99 -88 99 C-86.95244255 100.14576596 -85.96190283 101.3439356 -85 102.5625 C-74.37296297 114.98998545 -59.45856569 120.52326285 -43.52587891 121.89746094 C-30.2684289 122.43565241 -19.35409432 118.38475494 -8 112 C-6.3458249 111.30291537 -4.68304819 110.62415625 -3 110 C-3 109.34 -3 108.68 -3 108 C-1.68 107.67 -0.36 107.34 1 107 C1 106.34 1 105.68 1 105 C1.74765625 104.92652344 2.4953125 104.85304688 3.265625 104.77734375 C6.73458503 103.79116797 7.65992579 102.45253624 9.75 99.5625 C10.34296875 98.75941406 10.9359375 97.95632813 11.546875 97.12890625 C13.01798098 95.07643075 13.01798098 95.07643075 14 93 C14.66 93 15.32 93 16 93 C14.78065514 97.03321763 13.44045073 100.54269479 11 104 C10.34 104 9.68 104 9 104 C8.71125 104.5775 8.4225 105.155 8.125 105.75 C7.08333333 107.83333333 6.04166667 109.91666667 5 112 C6.65 111.34 8.3 110.68 10 110 C10 109.34 10 108.68 10 108 C15.75 105 15.75 105 18 105 C18 105.66 18 106.32 18 107 C17.34 107 16.68 107 16 107 C15.79375 107.721875 15.5875 108.44375 15.375 109.1875 C13.52471012 112.97218384 11.39759562 114.52258653 8 117 C7.34 117 6.68 117 6 117 C5.67 117.99 5.34 118.98 5 120 C3.33333333 120.66666667 1.66666667 121.33333333 0 122 C-0.33 122.99 -0.66 123.98 -1 125 C-1.99 125.66 -2.98 126.32 -4 127 C-4.43699219 127.4846875 -4.87398438 127.969375 -5.32421875 128.46875 C-15.14443732 137.44200334 -33.63037691 138.62282425 -46.3828125 138.22265625 C-50.82753592 137.94906096 -54.7505579 137.28368563 -59 136 C-59.969375 135.75507813 -60.93875 135.51015625 -61.9375 135.2578125 C-73.870211 132.01647514 -87.64255968 125.3928754 -96 116 C-96 115.34 -96 114.68 -96 114 C-96.66 114 -97.32 114 -98 114 C-99.37535339 112.02866014 -100.70211044 110.02318078 -102 108 C-103.11375 106.6696875 -103.11375 106.6696875 -104.25 105.3125 C-106 103 -106 103 -106 100 C-106.66 100 -107.32 100 -108 100 C-113.97577855 86.04077027 -113.97577855 86.04077027 -116 79 C-116.21785156 78.2575 -116.43570313 77.515 -116.66015625 76.75 C-121.18179994 58.54364659 -115.10356627 38.17711542 -106.4375 22.1015625 C-105.963125 21.40804687 -105.48875 20.71453125 -105 20 C-104.34 20 -103.68 20 -103 20 C-102.938125 19.443125 -102.87625 18.88625 -102.8125 18.3125 C-101.02638479 13.22894131 -95.79461309 9.90266819 -91.74609375 6.52734375 C-89.9201556 4.97669683 -89.9201556 4.97669683 -88.09375 3 C-64.27062563 -19.75641731 -26.15035134 -13.75342686 0 0 Z M1 114 C0.01 115.485 0.01 115.485 -1 117 C0.32 116.34 1.64 115.68 3 115 C2.34 114.67 1.68 114.34 1 114 Z " fill="#18508E" transform="translate(343,168)"/>
<path d="M0 0 C0.46148437 0.43957031 0.92296875 0.87914062 1.3984375 1.33203125 C1.3984375 1.99203125 1.3984375 2.65203125 1.3984375 3.33203125 C2.0584375 3.33203125 2.7184375 3.33203125 3.3984375 3.33203125 C11.96688773 11.87937692 15.25571375 22.81372841 15.6484375 34.64453125 C15.61911418 39.996037 14.43834858 44.41438847 12.3984375 49.33203125 C12.0684375 49.33203125 11.7384375 49.33203125 11.3984375 49.33203125 C11.3984375 45.37203125 11.3984375 41.41203125 11.3984375 37.33203125 C9.9134375 36.83703125 9.9134375 36.83703125 8.3984375 36.33203125 C7.625 33.9609375 7.625 33.9609375 7.0234375 30.89453125 C4.63134305 20.4166592 0.17522721 11.5745036 -8.7265625 5.20703125 C-18.69081035 -1.01039762 -28.94848615 -3.37963936 -40.6015625 -1.66796875 C-46.59471211 0.01333927 -52.07073938 2.51394518 -57.6015625 5.33203125 C-57.6015625 5.99203125 -57.6015625 6.65203125 -57.6015625 7.33203125 C-58.35953125 7.90824219 -59.1175 8.48445313 -59.8984375 9.078125 C-62.96010828 11.63099211 -64.16321324 13.80901059 -65.8515625 17.39453125 C-66.35171875 18.43738281 -66.851875 19.48023438 -67.3671875 20.5546875 C-71.1009932 28.95575033 -71.25409927 41.26679889 -67.9765625 49.95703125 C-65.23732194 55.59148336 -61.84819095 60.83427895 -56.6015625 64.33203125 C-56.6015625 64.99203125 -56.6015625 65.65203125 -56.6015625 66.33203125 C-55.87195313 66.61949219 -55.14234375 66.90695312 -54.390625 67.203125 C-52.6850395 67.89348103 -50.98904419 68.60902332 -49.3125 69.3671875 C-39.25425902 73.79079515 -29.19988825 74.45335878 -18.6015625 71.33203125 C-15.04555804 69.62350234 -11.86028582 67.544677 -8.6015625 65.33203125 C-7.12351824 64.47592384 -5.64442832 63.62161795 -4.1640625 62.76953125 C-0.91936987 60.75873582 0.63429906 58.76230043 2.3984375 55.33203125 C3.0584375 55.33203125 3.7184375 55.33203125 4.3984375 55.33203125 C3.79149595 58.48533679 2.756771 60.52091992 0.8359375 63.08203125 C0.38089844 63.695625 -0.07414062 64.30921875 -0.54296875 64.94140625 C-1.06697266 65.62976563 -1.06697266 65.62976563 -1.6015625 66.33203125 C-0.8178125 65.83703125 -0.0340625 65.34203125 0.7734375 64.83203125 C3.3984375 63.33203125 3.3984375 63.33203125 5.3984375 63.33203125 C4.0225176 67.79595319 2.06690866 69.81319668 -1.6015625 72.64453125 C-2.4884375 73.34191406 -3.3753125 74.03929687 -4.2890625 74.7578125 C-6.6015625 76.33203125 -6.6015625 76.33203125 -8.6015625 76.33203125 C-9.0965625 77.81703125 -9.0965625 77.81703125 -9.6015625 79.33203125 C-12.21875 80.46484375 -12.21875 80.46484375 -15.4765625 81.45703125 C-16.54648437 81.78960937 -17.61640625 82.1221875 -18.71875 82.46484375 C-19.67007813 82.75101562 -20.62140625 83.0371875 -21.6015625 83.33203125 C-22.5915625 83.66203125 -23.5815625 83.99203125 -24.6015625 84.33203125 C-32.37317888 84.72844822 -40.21801332 85.0560591 -47.6015625 82.33203125 C-48.98408203 81.87183594 -48.98408203 81.87183594 -50.39453125 81.40234375 C-58.14187312 78.5547783 -64.09786835 74.52977532 -69.6015625 68.33203125 C-69.6015625 67.67203125 -69.6015625 67.01203125 -69.6015625 66.33203125 C-70.2615625 66.33203125 -70.9215625 66.33203125 -71.6015625 66.33203125 C-71.9315625 65.01203125 -72.2615625 63.69203125 -72.6015625 62.33203125 C-73.2615625 62.33203125 -73.9215625 62.33203125 -74.6015625 62.33203125 C-75.5868295 60.10538808 -76.56487694 57.87601808 -77.5390625 55.64453125 C-77.81685547 55.01869141 -78.09464844 54.39285156 -78.38085938 53.74804688 C-82.74588605 43.70322645 -82.95420119 32.74285665 -79.6015625 22.33203125 C-79.30958984 21.36910156 -79.30958984 21.36910156 -79.01171875 20.38671875 C-77.13934381 14.73635651 -74.08827501 10.12068757 -70.6015625 5.33203125 C-69.8384375 4.28015625 -69.0753125 3.22828125 -68.2890625 2.14453125 C-49.72972624 -17.27802995 -20.18155996 -15.11622771 0 0 Z " fill="#235893" transform="translate(472.6015625,311.66796875)"/>
<path d="M0 0 C0 0.66 0 1.32 0 2 C0.59554687 2.25394531 1.19109375 2.50789063 1.8046875 2.76953125 C6.59224394 5.45294812 9.40190019 10.43354813 11.3125 15.4375 C12.82325908 23.26597885 13.21838921 29.24480465 11 37 C10.34 37 9.68 37 9 37 C8.875 30.25 8.875 30.25 10 28 C9.34 28 8.68 28 8 28 C7.78085937 27.2265625 7.56171875 26.453125 7.3359375 25.65625 C4.2160061 15.40867044 0.43862203 8.4215522 -9.15625 3.1328125 C-16.53464006 0.19361866 -24.63654024 -0.0241117 -32.0078125 3 C-39.12069227 6.57038671 -42.80603567 10.62220637 -46 18 C-48.50420029 26.2463156 -46.92015951 33.47995545 -43 41 C-39.21802718 47.09028036 -33.7974008 50.31844114 -27.0625 52.3125 C-17.41330856 54.39479179 -8.70604889 50.27945668 -0.6640625 45.28125 C1.28198089 43.92463431 1.28198089 43.92463431 3 41 C3.66 41 4.32 41 5 41 C4.34 42.65 3.68 44.3 3 46 C3.99 46.33 4.98 46.66 6 47 C1.5304902 53.41277493 -4.95421136 59.36634341 -12.83984375 60.79296875 C-24.37972013 61.89896052 -33.67519894 60.7541024 -43.4140625 54.1796875 C-50.22097095 48.44214231 -54.74437062 39.80235028 -56 31 C-56.49958226 21.34953286 -53.85454638 14.23936771 -49 6 C-48.34 6 -47.68 6 -47 6 C-46.67 5.01 -46.34 4.02 -46 3 C-41.54285714 -1 -41.54285714 -1 -39 -1 C-39 -1.66 -39 -2.32 -39 -3 C-24.79337788 -8.6336605 -13.28465454 -7.82717483 0 0 Z " fill="#2D5E97" transform="translate(335,404)"/>
<path d="M0 0 C0.66 0 1.32 0 2 0 C0.78065514 4.03321763 -0.55954927 7.54269479 -3 11 C-3.66 11 -4.32 11 -5 11 C-5.28875 11.5775 -5.5775 12.155 -5.875 12.75 C-6.91666667 14.83333333 -7.95833333 16.91666667 -9 19 C-7.35 18.34 -5.7 17.68 -4 17 C-4 16.34 -4 15.68 -4 15 C1.75 12 1.75 12 4 12 C4 12.66 4 13.32 4 14 C3.34 14 2.68 14 2 14 C1.79375 14.721875 1.5875 15.44375 1.375 16.1875 C-0.47528988 19.97218384 -2.60240438 21.52258653 -6 24 C-6.66 24 -7.32 24 -8 24 C-8.495 25.485 -8.495 25.485 -9 27 C-10.66666667 27.66666667 -12.33333333 28.33333333 -14 29 C-14.495 30.485 -14.495 30.485 -15 32 C-15.99 32.66 -16.98 33.32 -18 34 C-18.43957031 34.4846875 -18.87914062 34.969375 -19.33203125 35.46875 C-26.84576627 42.3666051 -40.28781247 43.46649671 -50 45 C-49.67 43.68 -49.34 42.36 -49 41 C-44.71 40.34 -40.42 39.68 -36 39 C-36.66 37.35 -37.32 35.7 -38 34 C-37.08476562 33.65066406 -36.16953125 33.30132812 -35.2265625 32.94140625 C-33.44378906 32.25884766 -33.44378906 32.25884766 -31.625 31.5625 C-30.44164062 31.11003906 -29.25828125 30.65757812 -28.0390625 30.19140625 C-25.13963807 29.10728088 -25.13963807 29.10728088 -23 28 C-23.33 27.34 -23.66 26.68 -24 26 C-19.25 23 -19.25 23 -17 23 C-17 22.34 -17 21.68 -17 21 C-15.03852126 19.61061923 -13.03833424 18.2739589 -11 17 C-11.66 16.67 -12.32 16.34 -13 16 C-13 16.66 -13 17.32 -13 18 C-13.99 18 -14.98 18 -16 18 C-16 18.66 -16 19.32 -16 20 C-22.43071611 24.82303708 -33.73896257 31 -42 31 C-42.33 30.67 -42.66 30.34 -43 30 C-43.99 30.66 -44.98 31.32 -46 32 C-47.32 32 -48.64 32 -50 32 C-50 31.34 -50 30.68 -50 30 C-51.65 30 -53.3 30 -55 30 C-55 29.67 -55 29.34 -55 29 C-53.79085938 28.86464844 -52.58171875 28.72929687 -51.3359375 28.58984375 C-40.12523551 27.17328343 -31.83030898 24.52788378 -22 19 C-20.3458249 18.30291537 -18.68304819 17.62415625 -17 17 C-17 16.34 -17 15.68 -17 15 C-15.68 14.67 -14.36 14.34 -13 14 C-13 13.34 -13 12.68 -13 12 C-12.25234375 11.92652344 -11.5046875 11.85304688 -10.734375 11.77734375 C-7.26541497 10.79116797 -6.34007421 9.45253624 -4.25 6.5625 C-3.65703125 5.75941406 -3.0640625 4.95632813 -2.453125 4.12890625 C-0.98201902 2.07643075 -0.98201902 2.07643075 0 0 Z M-13 21 C-13.99 22.485 -13.99 22.485 -15 24 C-13.68 23.34 -12.36 22.68 -11 22 C-11.66 21.67 -12.32 21.34 -13 21 Z " fill="#3A679D" transform="translate(357,261)"/>
<path d="M0 0 C0.66 0 1.32 0 2 0 C1.45912682 3.78611227 -0.11722332 5.55400767 -3 8 C-3.66 8 -4.32 8 -5 8 C-5 8.66 -5 9.32 -5 10 C-5.99 10 -6.98 10 -8 10 C-8.33 10.99 -8.66 11.98 -9 13 C-10.55859375 14.38671875 -10.55859375 14.38671875 -12.4375 15.6875 C-13.05496094 16.12449219 -13.67242187 16.56148438 -14.30859375 17.01171875 C-16 18 -16 18 -18 18 C-18 18.66 -18 19.32 -18 20 C-18.845625 20.4125 -19.69125 20.825 -20.5625 21.25 C-27.02389598 24.51154202 -27.02389598 24.51154202 -33 28.5625 C-35 30 -35 30 -38.6875 31.5 C-39.780625 31.995 -40.87375 32.49 -42 33 C-42.33 33.99 -42.66 34.98 -43 36 C-45.109375 37.16796875 -45.109375 37.16796875 -47.75 38.1875 C-48.61109375 38.53167969 -49.4721875 38.87585938 -50.359375 39.23046875 C-53 40 -53 40 -55.703125 39.98828125 C-58.20070555 39.73171226 -58.20070555 39.73171226 -60 42 C-62.32817964 42.36760731 -64.6618385 42.70241581 -67 43 C-67.33 43.33 -67.66 43.66 -68 44 C-68.969375 43.979375 -69.93875 43.95875 -70.9375 43.9375 C-74.11031214 43.64862426 -74.11031214 43.64862426 -76 46 C-81.84764187 47.53885312 -88.00072594 47.08736807 -94 47 C-94 46.34 -94 45.68 -94 45 C-91.03 44.34 -88.06 43.68 -85 43 C-85.99 42.34 -86.98 41.68 -88 41 C-86.81410278 40.75878418 -86.81410278 40.75878418 -85.60424805 40.51269531 C-81.9635135 39.76705075 -78.32555378 39.00861172 -74.6875 38.25 C-73.44419922 37.99734375 -72.20089844 37.7446875 -70.91992188 37.484375 C-53.44170795 33.81440882 -37.81627921 26.89946952 -23 17 C-20.14015751 15.21962624 -17.27699668 13.44486246 -14.41015625 11.67578125 C-11.9765604 9.98370245 -10.0642476 8.11672847 -8 6 C-6.34051852 4.98812105 -4.67419438 3.9873454 -3 3 C-2.443125 2.443125 -1.88625 1.88625 -1.3125 1.3125 C-0.879375 0.879375 -0.44625 0.44625 0 0 Z M-48 34 C-47.67 34.66 -47.34 35.32 -47 36 C-46.34 35.34 -45.68 34.68 -45 34 C-45.99 34 -46.98 34 -48 34 Z M-65 40 C-61 41 -61 41 -61 41 Z M-83 44 C-83 44.33 -83 44.66 -83 45 C-81.35 45 -79.7 45 -78 45 C-78 44.67 -78 44.34 -78 44 C-79.65 44 -81.3 44 -83 44 Z " fill="#5B7EAA" transform="translate(331,331)"/>
<path d="M0 0 C0.66 0 1.32 0 2 0 C0.61961693 2.93167071 -0.95825333 5.51306023 -2.875 8.125 C-3.36742187 8.80820312 -3.85984375 9.49140625 -4.3671875 10.1953125 C-6 12 -6 12 -8.1328125 13.0546875 C-10.35991547 13.90715221 -10.35991547 13.90715221 -11 17 C-11.66 17 -12.32 17 -13 17 C-13 17.99 -13 18.98 -13 20 C-16.33333333 23 -16.33333333 23 -19 23 C-19 23.66 -19 24.32 -19 25 C-20.69785576 26.23177771 -22.40044157 27.4578818 -24.1328125 28.640625 C-26.21609943 30.08330107 -26.21609943 30.08330107 -28.5625 32.5625 C-31.21679318 35.21679318 -33.83183528 37.01068727 -37 39 C-37.66 38.67 -38.32 38.34 -39 38 C-37.515 37.505 -37.515 37.505 -36 37 C-36 36.34 -36 35.68 -36 35 C-33.29647298 32.80784944 -30.52699281 30.76071555 -27.70898438 28.72070312 C-23.98691153 26.03993625 -23.98691153 26.03993625 -22 22 C-22.886875 22.78375 -23.77375 23.5675 -24.6875 24.375 C-28.27232261 27.43199596 -31.92666199 30.39460279 -35.625 33.3125 C-36.17502686 33.75706543 -36.72505371 34.20163086 -37.29174805 34.65966797 C-40.47534866 37.14426583 -42.95200188 38.60121952 -47 39 C-45.35 37.02 -43.7 35.04 -42 33 C-42.66 32.67 -43.32 32.34 -44 32 C-42.71283353 30.99421411 -41.42011342 29.99553202 -40.125 29 C-39.40570313 28.443125 -38.68640625 27.88625 -37.9453125 27.3125 C-36 26 -36 26 -34 26 C-34 25.34 -34 24.68 -34 24 C-32.02053408 22.63636792 -30.0180755 21.30581356 -28 20 C-27.4225 19.4225 -26.845 18.845 -26.25 18.25 C-25.8375 17.8375 -25.425 17.425 -25 17 C-24.34 17 -23.68 17 -23 17 C-23 16.34 -23 15.68 -23 15 C-22.34 15 -21.68 15 -21 15 C-21 14.34 -21 13.68 -21 13 C-19.34467377 11.98133771 -17.67739862 10.98189187 -16 10 C-15.67 9.34 -15.34 8.68 -15 8 C-14.01 8 -13.02 8 -12 8 C-11.731875 7.360625 -11.46375 6.72125 -11.1875 6.0625 C-10 4 -10 4 -7 3 C-7.33 4.32 -7.66 5.64 -8 7 C-7.236875 6.175 -6.47375 5.35 -5.6875 4.5 C-3 2 -3 2 0 2 C0 1.34 0 0.68 0 0 Z M-10 8 C-10.99 9.485 -10.99 9.485 -12 11 C-11.01 10.67 -10.02 10.34 -9 10 C-9.33 9.34 -9.66 8.68 -10 8 Z " fill="#2D5C97" transform="translate(365,332)"/>
<path d="M0 0 C0.99 0.33 1.98 0.66 3 1 C0.35211722 4.1983387 -2.77574 5.37042149 -6.5625 6.9375 C-7.19236816 7.19837402 -7.82223633 7.45924805 -8.47119141 7.72802734 C-10.3126541 8.48892743 -12.15628451 9.24457495 -14 10 C-14.85207031 10.37511719 -15.70414062 10.75023437 -16.58203125 11.13671875 C-22.27653956 13.59108093 -28.09978081 15.08779404 -34.12109375 16.49609375 C-37.90647827 17.40144937 -41.35219073 18.47939706 -44.875 20.125 C-50.95503757 22.77981092 -57.48733075 23.02664094 -64.0234375 23.60546875 C-66.88012552 23.88889261 -69.27061944 24.2592551 -72 25 C-72 24.34 -72 23.68 -72 23 C-71.01 23 -70.02 23 -69 23 C-69 22.34 -69 21.68 -69 21 C-69.94875 21.20625 -70.8975 21.4125 -71.875 21.625 C-72.90625 21.74875 -73.9375 21.8725 -75 22 C-75.66 21.34 -76.32 20.68 -77 20 C-79.89223503 19.53603307 -79.89223503 19.53603307 -83.125 19.375 C-84.22070312 19.30023438 -85.31640625 19.22546875 -86.4453125 19.1484375 C-87.28835937 19.09945313 -88.13140625 19.05046875 -89 19 C-89 19.66 -89 20.32 -89 21 C-91.64 21 -94.28 21 -97 21 C-96.01 20.34 -95.02 19.68 -94 19 C-94.66 18.34 -95.32 17.68 -96 17 C-85.11 17 -74.22 17 -63 17 C-63 17.66 -63 18.32 -63 19 C-61.68 19 -60.36 19 -59 19 C-58.67 18.34 -58.34 17.68 -58 17 C-55.41796875 16.65625 -55.41796875 16.65625 -52.1875 16.5 C-48.22421989 16.30690474 -45.44285475 16.00184089 -42 14 C-39.50816642 13.22667234 -37.16464668 12.8936823 -34.5625 12.5625 C-30.22042245 11.87690881 -27.13515058 11.13515058 -24 8 C-20.875 8.375 -20.875 8.375 -18 9 C-17.67 8.34 -17.34 7.68 -17 7 C-16.34 6.67 -15.68 6.34 -15 6 C-14.34 5.34 -13.68 4.68 -13 4 C-10.99739114 3.41298001 -8.97231055 2.90072862 -6.9375 2.4375 C-3.15987482 1.83882639 -3.15987482 1.83882639 0 0 Z " fill="#688AB3" transform="translate(312,383)"/>
<path d="M0 0 C0.66 0 1.32 0 2 0 C1.39305845 3.15330554 0.3583335 5.18888867 -1.5625 7.75 C-2.01753906 8.36359375 -2.47257812 8.9771875 -2.94140625 9.609375 C-3.46541016 10.29773438 -3.46541016 10.29773438 -4 11 C-3.21625 10.505 -2.4325 10.01 -1.625 9.5 C1 8 1 8 3 8 C1.6240801 12.46392194 -0.33152884 14.48116543 -4 17.3125 C-4.886875 18.00988281 -5.77375 18.70726562 -6.6875 19.42578125 C-9 21 -9 21 -11 21 C-11.495 22.485 -11.495 22.485 -12 24 C-14.6171875 25.1328125 -14.6171875 25.1328125 -17.875 26.125 C-18.94492187 26.45757812 -20.01484375 26.79015625 -21.1171875 27.1328125 C-22.54417969 27.56207031 -22.54417969 27.56207031 -24 28 C-24.99 28.33 -25.98 28.66 -27 29 C-38.03107753 29.56267655 -46.91333162 28.62305634 -57 24 C-53.18243176 22.62567543 -49.92744671 23.32024961 -46 24 C-46 23.67 -46 23.34 -46 23 C-42.37 23.33 -38.74 23.66 -35 24 C-35.33 24.66 -35.66 25.32 -36 26 C-34.35 26 -32.7 26 -31 26 C-30.67 25.01 -30.34 24.02 -30 23 C-28.35 23 -26.7 23 -25 23 C-25 23.66 -25 24.32 -25 25 C-20.06866002 23.91343356 -16.21683811 22.8990762 -12 20 C-12.7425 20.350625 -13.485 20.70125 -14.25 21.0625 C-17.21122875 22.0720098 -18.12062561 21.87980884 -21 21 C-20.43410156 20.73445313 -19.86820312 20.46890625 -19.28515625 20.1953125 C-18.55167969 19.84210938 -17.81820312 19.48890625 -17.0625 19.125 C-16.33160156 18.77695312 -15.60070312 18.42890625 -14.84765625 18.0703125 C-12.83667541 17.1315023 -12.83667541 17.1315023 -12 15 C-12.60328125 15.31195313 -13.2065625 15.62390625 -13.828125 15.9453125 C-15.02695312 16.52925781 -15.02695312 16.52925781 -16.25 17.125 C-17.03890625 17.51945312 -17.8278125 17.91390625 -18.640625 18.3203125 C-21 19 -21 19 -23.296875 18.1171875 C-23.85890625 17.74851562 -24.4209375 17.37984375 -25 17 C-24.35933594 16.76925781 -23.71867187 16.53851563 -23.05859375 16.30078125 C-18.05097356 14.41266216 -13.76371499 12.43179349 -9.52734375 9.15234375 C-8 8 -8 8 -5.25 6.5 C-2.56440104 4.7096007 -1.57366594 2.77264952 0 0 Z " fill="#ABBED4" transform="translate(475,367)"/>
<path d="M0 0 C0.66 0 1.32 0 2 0 C0.78065514 4.03321763 -0.55954927 7.54269479 -3 11 C-3.66 11 -4.32 11 -5 11 C-6.41930621 13.64937159 -7.3391146 16.07322179 -8 19 C-8.495 20.485 -8.495 20.485 -9 22 C-9.763125 22.061875 -10.52625 22.12375 -11.3125 22.1875 C-14.87162127 23.26351341 -15.16907948 24.87217744 -17 28 C-19.6875 29.3125 -19.6875 29.3125 -22 30 C-22.66 28.68 -23.32 27.36 -24 26 C-19.25 23 -19.25 23 -17 23 C-17 22.34 -17 21.68 -17 21 C-15.03852126 19.61061923 -13.03833424 18.2739589 -11 17 C-11.66 16.67 -12.32 16.34 -13 16 C-13 16.66 -13 17.32 -13 18 C-13.99 18 -14.98 18 -16 18 C-16 18.66 -16 19.32 -16 20 C-22.43071611 24.82303708 -33.73896257 31 -42 31 C-42.33 30.67 -42.66 30.34 -43 30 C-43.99 30.66 -44.98 31.32 -46 32 C-47.32 32 -48.64 32 -50 32 C-50 31.34 -50 30.68 -50 30 C-51.65 30 -53.3 30 -55 30 C-55 29.67 -55 29.34 -55 29 C-53.79085938 28.86464844 -52.58171875 28.72929687 -51.3359375 28.58984375 C-40.12523551 27.17328343 -31.83030898 24.52788378 -22 19 C-20.3458249 18.30291537 -18.68304819 17.62415625 -17 17 C-17 16.34 -17 15.68 -17 15 C-15.68 14.67 -14.36 14.34 -13 14 C-13 13.34 -13 12.68 -13 12 C-12.25234375 11.92652344 -11.5046875 11.85304688 -10.734375 11.77734375 C-7.26541497 10.79116797 -6.34007421 9.45253624 -4.25 6.5625 C-3.65703125 5.75941406 -3.0640625 4.95632813 -2.453125 4.12890625 C-0.98201902 2.07643075 -0.98201902 2.07643075 0 0 Z " fill="#A7BAD2" transform="translate(357,261)"/>
<path d="M0 0 C2 0 4 0 6 0 C5.25 2.4375 5.25 2.4375 4 5 C1.875 5.8125 1.875 5.8125 0 6 C0 6.66 0 7.32 0 8 C-2.9802912 10.12877943 -6.05836652 12.03547769 -9.1875 13.9375 C-12.12272501 16.08999834 -13.1742375 17.92939943 -15 21 C-17.1875 21.8125 -17.1875 21.8125 -19 22 C-19 22.66 -19 23.32 -19 24 C-23.83769272 27.6043679 -28.86277186 30.67698799 -35 31 C-34.67 29.68 -34.34 28.36 -34 27 C-34.66 26.67 -35.32 26.34 -36 26 C-35.32324219 25.60167969 -34.64648438 25.20335937 -33.94921875 24.79296875 C-31.77782594 23.47287696 -29.64437622 22.12950043 -27.51953125 20.73828125 C-26.91302734 20.34189453 -26.30652344 19.94550781 -25.68164062 19.53710938 C-24.42197257 18.71180962 -23.16419351 17.88362032 -21.90820312 17.05273438 C-17.22132851 14 -17.22132851 14 -15 14 C-15 13.34 -15 12.68 -15 12 C-13.35 11.34 -11.7 10.68 -10 10 C-10 9.34 -10 8.68 -10 8 C-9.2575 7.855625 -8.515 7.71125 -7.75 7.5625 C-5.47972261 7.09812508 -3.24240521 6.58136431 -1 6 C-1.20625 5.38125 -1.4125 4.7625 -1.625 4.125 C-1.74875 3.42375 -1.8725 2.7225 -2 2 C-1.34 1.34 -0.68 0.68 0 0 Z " fill="#728FB5" transform="translate(332,343)"/>
<path d="M0 0 C0.66 0 1.32 0 2 0 C1.34 1.65 0.68 3.3 0 5 C0.99 5.33 1.98 5.66 3 6 C-1.4695098 12.41277493 -7.95421136 18.36634341 -15.83984375 19.79296875 C-23.2108694 20.49941425 -30.96493921 20.65041825 -38 18 C-38.33 17.34 -38.66 16.68 -39 16 C-34.10699339 15.35829421 -29.43560085 14.95807967 -24.5 15.0625 C-19.36857712 15.12763795 -14.95592487 14.29991472 -10 13 C-10 12.34 -10 11.68 -10 11 C-11.32 10.67 -12.64 10.34 -14 10 C-13.24074219 9.61328125 -12.48148437 9.2265625 -11.69921875 8.828125 C-10.70535156 8.30734375 -9.71148437 7.7865625 -8.6875 7.25 C-7.70136719 6.73953125 -6.71523438 6.2290625 -5.69921875 5.703125 C-3.02685308 4.01694348 -1.79296622 2.53773681 0 0 Z " fill="#6385AF" transform="translate(338,445)"/>
<path d="M0 0 C0.66 0 1.32 0 2 0 C1.45912682 3.78611227 -0.11722332 5.55400767 -3 8 C-3.66 8 -4.32 8 -5 8 C-5 8.66 -5 9.32 -5 10 C-5.99 10 -6.98 10 -8 10 C-8.33 10.99 -8.66 11.98 -9 13 C-10.55859375 14.38671875 -10.55859375 14.38671875 -12.4375 15.6875 C-13.05496094 16.12449219 -13.67242187 16.56148438 -14.30859375 17.01171875 C-16 18 -16 18 -18 18 C-18 18.66 -18 19.32 -18 20 C-18.845625 20.4125 -19.69125 20.825 -20.5625 21.25 C-27.02389598 24.51154202 -27.02389598 24.51154202 -33 28.5625 C-35 30 -35 30 -38.6875 31.5 C-39.780625 31.995 -40.87375 32.49 -42 33 C-42.33 33.99 -42.66 34.98 -43 36 C-45.875 36.625 -45.875 36.625 -49 37 C-49.66 36.34 -50.32 35.68 -51 35 C-48 34 -48 34 -46 34 C-45.34 33.01 -44.68 32.02 -44 31 C-45.65 31.33 -47.3 31.66 -49 32 C-47.55127323 29.10254647 -45.68601844 28.95201479 -42.6875 27.8125 C-33.11225182 23.93923828 -24.60096507 18.62303392 -16.25390625 12.578125 C-14 11 -14 11 -11.27734375 9.421875 C-8.88398974 8.2028501 -8.88398974 8.2028501 -8 6 C-6.33720673 4.9935725 -4.67016516 3.99414593 -3 3 C-2.443125 2.443125 -1.88625 1.88625 -1.3125 1.3125 C-0.879375 0.879375 -0.44625 0.44625 0 0 Z " fill="#718FB4" transform="translate(331,331)"/>
<path d="M0 0 C0.99 0 1.98 0 3 0 C2.51351734 5.0887631 0.73202858 8.63775751 -2.0625 12.8125 C-2.46299561 13.42343506 -2.86349121 14.03437012 -3.27612305 14.66381836 C-6.2779668 19.14855046 -9.58119868 23.2176143 -13.27734375 27.15625 C-15.18324929 29.1396437 -15.18324929 29.1396437 -17.375 32.0625 C-17.91125 32.701875 -18.4475 33.34125 -19 34 C-19.66 34 -20.32 34 -21 34 C-21.99 36.475 -21.99 36.475 -23 39 C-23.66 39 -24.32 39 -25 39 C-24.67 37.68 -24.34 36.36 -24 35 C-24.7425 35.66 -25.485 36.32 -26.25 37 C-29 39 -29 39 -33 39 C-33.33 40.32 -33.66 41.64 -34 43 C-34.66 42.67 -35.32 42.34 -36 42 C-34.91463814 38.85245061 -34.14559062 38.07596032 -31.125 36.5 C-30.09375 36.005 -29.0625 35.51 -28 35 C-26.64802142 33.68557638 -25.30973998 32.3565164 -24 31 C-23.34 31 -22.68 31 -22 31 C-21.67 30.01 -21.34 29.02 -21 28 C-20 27 -19 26 -18 25 C-17.38125 24.05125 -16.7625 23.1025 -16.125 22.125 C-14.00110388 19.00162335 -11.69710327 16.62967569 -9 14 C-7.9171875 12.6078125 -7.9171875 12.6078125 -6.8125 11.1875 C-6.214375 10.465625 -5.61625 9.74375 -5 9 C-4.34 9 -3.68 9 -3 9 C-2.01 6.03 -1.02 3.06 0 0 Z " fill="#597FAC" transform="translate(361,302)"/>
<path d="M0 0 C0.33 0 0.66 0 1 0 C1.3678478 3.51954254 1.71679008 7.04071958 2.0625 10.5625 C2.16626953 11.55314453 2.27003906 12.54378906 2.37695312 13.56445312 C2.89381948 18.92916945 3.04920242 23.66711126 2 29 C1.85820312 29.92425781 1.71640625 30.84851563 1.5703125 31.80078125 C1.42335938 32.62964844 1.27640625 33.45851562 1.125 34.3125 C0.98320312 35.15425781 0.84140625 35.99601562 0.6953125 36.86328125 C0 39 0 39 -3 41 C-2.505 32.09 -2.505 32.09 -2 23 C-3.32 23 -4.64 23 -6 23 C-7.72330907 15.90673679 -8.2494783 9.29031024 -8 2 C-6 3 -6 3 -4.875 6.25 C-4.14039664 9.39830013 -3.63547397 11.81039722 -4 15 C-4.66 15.66 -5.32 16.32 -6 17 C-4.68 17 -3.36 17 -2 17 C-2.33 14.69 -2.66 12.38 -3 10 C-2.01 11.32 -1.02 12.64 0 14 C0 9.38 0 4.76 0 0 Z " fill="#89A5C5" transform="translate(373,210)"/>
<path d="M0 0 C0.99 0.66 1.98 1.32 3 2 C1.18182999 4.31459868 0.24384457 4.95377187 -2.69921875 5.51171875 C-4.17841797 5.59873047 -4.17841797 5.59873047 -5.6875 5.6875 C-7.17830078 5.78611328 -7.17830078 5.78611328 -8.69921875 5.88671875 C-9.45847656 5.92410156 -10.21773438 5.96148437 -11 6 C-11.33 7.32 -11.66 8.64 -12 10 C-15.63 10 -19.26 10 -23 10 C-22.67 8.68 -22.34 7.36 -22 6 C-23.98 6 -25.96 6 -28 6 C-28 6.33 -28 6.66 -28 7 C-29.65 7 -31.3 7 -33 7 C-33 6.34 -33 5.68 -33 5 C-33.99 4.34 -34.98 3.68 -36 3 C-36 2.34 -36 1.68 -36 1 C-34.52031676 1.14049518 -33.04125484 1.28754826 -31.5625 1.4375 C-30.32693359 1.55931641 -30.32693359 1.55931641 -29.06640625 1.68359375 C-27 2 -27 2 -26 3 C-23.01133358 3.10011296 -20.05089547 3.13873975 -17.0625 3.125 C-16.22525391 3.12886719 -15.38800781 3.13273437 -14.52539062 3.13671875 C-13.72423828 3.13542969 -12.92308594 3.13414062 -12.09765625 3.1328125 C-10.99176147 3.13112061 -10.99176147 3.13112061 -9.86352539 3.12939453 C-7.90668399 3.11341854 -7.90668399 3.11341854 -6 2 C-4.00039988 1.960008 -1.99952758 1.95653201 0 2 C0 1.34 0 0.68 0 0 Z " fill="#094385" transform="translate(319,296)"/>
<path d="M0 0 C2.22949696 2.22949696 2.79864589 3.81448879 3.875 6.75 C5.49696697 10.96955316 7.4201768 14.31453829 10 18 C10 18.66 10 19.32 10 20 C10.66 20 11.32 20 12 20 C13.04755745 21.14576596 14.03809717 22.3439356 15 23.5625 C19.03587722 28.3492381 23.76475785 31.62922035 29 35 C25.24877039 36.12297956 23.55055823 35.72975914 20 34 C19.01 33.34 18.02 32.68 17 32 C17 31.34 17 30.68 17 30 C16.360625 29.731875 15.72125 29.46375 15.0625 29.1875 C13 28 13 28 12 25 C11.34 25 10.68 25 10 25 C-0.96325723 11.82248885 -0.96325723 11.82248885 -1.015625 4.94921875 C-0.75 3 -0.75 3 0 0 Z " fill="#5176A5" transform="translate(243,247)"/>
<path d="M0 0 C5.62891508 5.62891508 6.39315948 16.35380942 7 24 C7.17144531 24.65613281 7.34289062 25.31226563 7.51953125 25.98828125 C8.02974852 28.1245568 8.06661637 29.93498674 8 32.125 C7.71117455 35.7950271 7.71117455 35.7950271 9 38 C9.66 36.68 10.32 35.36 11 34 C11.33 34 11.66 34 12 34 C12.21824777 40.0018137 11.5056904 45.19233704 10 51 C9.67 51 9.34 51 9 51 C8.67 49.35 8.34 47.7 8 46 C7.67 46.99 7.34 47.98 7 49 C6.01 49 5.02 49 4 49 C4.03552979 48.41621582 4.07105957 47.83243164 4.10766602 47.23095703 C4.26741355 44.52938357 4.41500419 41.82726899 4.5625 39.125 C4.64661133 37.74828125 4.64661133 37.74828125 4.73242188 36.34375 C5.23346556 26.85732299 4.51823726 18.48067788 1.375 9.5 C0.5136187 7.0074924 -0.270763 4.5375076 -1 2 C-0.67 1.34 -0.34 0.68 0 0 Z " fill="#829DBF" transform="translate(380,185)"/>
<path d="M0 0 C0.66 0 1.32 0 2 0 C0.61961693 2.93167071 -0.95825333 5.51306023 -2.875 8.125 C-3.36742187 8.80820312 -3.85984375 9.49140625 -4.3671875 10.1953125 C-6 12 -6 12 -8.1328125 13.0546875 C-10.35991547 13.90715221 -10.35991547 13.90715221 -11 17 C-11.66 16.67 -12.32 16.34 -13 16 C-12.67 15.34 -12.34 14.68 -12 14 C-12.66 14 -13.32 14 -14 14 C-14 14.66 -14 15.32 -14 16 C-16.5 17.625 -16.5 17.625 -19 19 C-19.33 18.34 -19.66 17.68 -20 17 C-19.34 16.67 -18.68 16.34 -18 16 C-18 15.34 -18 14.68 -18 14 C-18.99 14.33 -19.98 14.66 -21 15 C-21 14.34 -21 13.68 -21 13 C-19.34467377 11.98133771 -17.67739862 10.98189187 -16 10 C-15.67 9.34 -15.34 8.68 -15 8 C-14.01 8 -13.02 8 -12 8 C-11.731875 7.360625 -11.46375 6.72125 -11.1875 6.0625 C-10 4 -10 4 -7 3 C-7.33 4.32 -7.66 5.64 -8 7 C-7.236875 6.175 -6.47375 5.35 -5.6875 4.5 C-3 2 -3 2 0 2 C0 1.34 0 0.68 0 0 Z M-10 8 C-10.99 9.485 -10.99 9.485 -12 11 C-11.01 10.67 -10.02 10.34 -9 10 C-9.33 9.34 -9.66 8.68 -10 8 Z " fill="#94ABC7" transform="translate(365,332)"/>
<path d="M0 0 C0.804375 0.23396484 0.804375 0.23396484 1.625 0.47265625 C9.86185047 2.51832142 17.64712789 1.766889 26 1 C26 1.66 26 2.32 26 3 C19.19274667 5.76910584 13.12626129 6.49226608 5.8125 6.4375 C4.85408203 6.45748047 3.89566406 6.47746094 2.90820312 6.49804688 C-3.04523199 6.49393255 -6.42398327 5.88384613 -11 2 C-7.33333333 2 -3.66666667 2 0 2 C0 1.34 0 0.68 0 0 Z " fill="#37639A" transform="translate(302,455)"/>
<path d="M0 0 C3.63 0.33 7.26 0.66 11 1 C11 0.67 11 0.34 11 0 C14.63 0.33 18.26 0.66 22 1 C21.67 1.66 21.34 2.32 21 3 C22.65 3 24.3 3 26 3 C26.33 2.01 26.66 1.02 27 0 C28.65 0 30.3 0 32 0 C32 0.66 32 1.32 32 2 C32.66 2.33 33.32 2.66 34 3 C29.95108388 6.87509902 26.06134425 6.36458767 20.71679688 6.28051758 C13.06387336 6.07546228 6.91004999 4.16710624 0 1 C0 0.67 0 0.34 0 0 Z " fill="#708EB4" transform="translate(418,390)"/>
<path d="M0 0 C0 0.99 0 1.98 0 3 C0.33 3.99 0.66 4.98 1 6 C0.05125 5.95875 -0.8975 5.9175 -1.875 5.875 C-5.10244856 5.65026182 -5.10244856 5.65026182 -7 8 C-12.84764187 9.53885312 -19.00072594 9.08736807 -25 9 C-25 8.34 -25 7.68 -25 7 C-22.03 6.34 -19.06 5.68 -16 5 C-16.99 4.34 -17.98 3.68 -19 3 C-16.96040523 2.49161436 -14.91820862 1.99366114 -12.875 1.5 C-11.73804688 1.2215625 -10.60109375 0.943125 -9.4296875 0.65625 C-6.18533302 0.03546235 -3.29185543 -0.12006768 0 0 Z M-14 6 C-14 6.33 -14 6.66 -14 7 C-12.35 7 -10.7 7 -9 7 C-9 6.67 -9 6.34 -9 6 C-10.65 6 -12.3 6 -14 6 Z " fill="#567CA9" transform="translate(262,369)"/>
<path d="M0 0 C1.12641779 3.12893831 0.79784888 5.45985026 0.26171875 8.68359375 C-0.64770638 16.73268481 -0.27762672 25.01483299 1 33 C0.34 33 -0.32 33 -1 33 C-0.67 34.65 -0.34 36.3 0 38 C-2 37 -2 37 -2.6328125 35.34765625 C-3.90089087 29.46014955 -4.18140724 23.74954256 -4.1875 17.75 C-4.1887085 16.59769897 -4.1887085 16.59769897 -4.18994141 15.42211914 C-4.14851444 11.17953721 -3.83150172 7.17746464 -3 3 C-2.01 3 -1.02 3 0 3 C0 2.01 0 1.02 0 0 Z " fill="#426CA0" transform="translate(242,212)"/>
<path d="M0 0 C0 0.66 0 1.32 0 2 C-0.66 2 -1.32 2 -2 2 C-2.309375 3.0828125 -2.309375 3.0828125 -2.625 4.1875 C-4.47528988 7.97218384 -6.60240438 9.52258653 -10 12 C-10.66 12 -11.32 12 -12 12 C-12.33 12.99 -12.66 13.98 -13 15 C-14.66666667 15.66666667 -16.33333333 16.33333333 -18 17 C-18.33 17.99 -18.66 18.98 -19 20 C-19.99 19.67 -20.98 19.34 -22 19 C-19.7696793 12.43294461 -19.7696793 12.43294461 -16 10.3125 C-15.01 9.879375 -14.02 9.44625 -13 9 C-11.95884159 7.69855198 -10.94622159 6.37202131 -10 5 C-9.34 5 -8.68 5 -8 5 C-8 4.34 -8 3.68 -8 3 C-2.25 0 -2.25 0 0 0 Z " fill="#5A7DAA" transform="translate(361,273)"/>
<path d="M0 0 C0.66 0 1.32 0 2 0 C1.34 1.65 0.68 3.3 0 5 C0.99 5.33 1.98 5.66 3 6 C0.02575322 10.00379374 -3.05323863 12.99702939 -7 16 C-7.66 16 -8.32 16 -9 16 C-9 15.34 -9 14.68 -9 14 C-10.65 14.33 -12.3 14.66 -14 15 C-12.68 14.34 -11.36 13.68 -10 13 C-10 12.34 -10 11.68 -10 11 C-11.32 10.67 -12.64 10.34 -14 10 C-13.24074219 9.61328125 -12.48148437 9.2265625 -11.69921875 8.828125 C-10.70535156 8.30734375 -9.71148437 7.7865625 -8.6875 7.25 C-7.70136719 6.73953125 -6.71523438 6.2290625 -5.69921875 5.703125 C-3.02685308 4.01694348 -1.79296622 2.53773681 0 0 Z " fill="#819CBF" transform="translate(338,445)"/>
<path d="M0 0 C0.33 0.99 0.66 1.98 1 3 C-2.75 6 -2.75 6 -5 6 C-5.2475 6.61875 -5.495 7.2375 -5.75 7.875 C-7.22246063 10.37818306 -8.41028837 10.83045281 -11 12 C-11.33 12.66 -11.66 13.32 -12 14 C-12.99 14.309375 -13.98 14.61875 -15 14.9375 C-15.99 15.288125 -16.98 15.63875 -18 16 C-18.33 16.99 -18.66 17.98 -19 19 C-21.5625 20.6875 -21.5625 20.6875 -24 22 C-24 21.34 -24 20.68 -24 20 C-24.66 19.67 -25.32 19.34 -26 19 C-24.71283353 17.99421411 -23.42011342 16.99553202 -22.125 16 C-21.40570313 15.443125 -20.68640625 14.88625 -19.9453125 14.3125 C-18 13 -18 13 -16 13 C-16 12.34 -16 11.68 -16 11 C-14.02053408 9.63636792 -12.0180755 8.30581356 -10 7 C-9.4225 6.4225 -8.845 5.845 -8.25 5.25 C-7.8375 4.8375 -7.425 4.425 -7 4 C-6.34 4 -5.68 4 -5 4 C-5 3.34 -5 2.68 -5 2 C-3.35 1.34 -1.7 0.68 0 0 Z " fill="#5B7FAC" transform="translate(347,345)"/>
<path d="M0 0 C0.99 0.33 1.98 0.66 3 1 C-1.08041143 5.94952433 -8.20621433 7.64266148 -14 10 C-14.83273437 10.35964844 -15.66546875 10.71929687 -16.5234375 11.08984375 C-20.38269475 12.694171 -22.97719317 13.38283985 -27 12 C-26.67 11.01 -26.34 10.02 -26 9 C-20.25 7.875 -20.25 7.875 -18 9 C-17.67 8.34 -17.34 7.68 -17 7 C-16.34 6.67 -15.68 6.34 -15 6 C-14.34 5.34 -13.68 4.68 -13 4 C-10.99739114 3.41298001 -8.97231055 2.90072862 -6.9375 2.4375 C-3.15987482 1.83882639 -3.15987482 1.83882639 0 0 Z " fill="#8EA6C3" transform="translate(312,383)"/>
<path d="M0 0 C-1.0975223 2.99324263 -1.67682892 3.84610901 -4.625 5.25 C-5.800625 5.62125 -5.800625 5.62125 -7 6 C-4 5 -1 4 2 3 C2 3.66 2 4.32 2 5 C-6.93918919 10.13175676 -6.93918919 10.13175676 -13 10 C-13 9.01 -13 8.02 -13 7 C-12.34 7 -11.68 7 -11 7 C-11 6.34 -11 5.68 -11 5 C-14.3 5.33 -17.6 5.66 -21 6 C-21 5.01 -21 4.02 -21 3 C-20.21496094 3.03480469 -19.42992187 3.06960938 -18.62109375 3.10546875 C-11.83365675 3.28035976 -6.03818199 0 0 0 Z " fill="#366298" transform="translate(463,382)"/>
<path d="M0 0 C10.89 0 21.78 0 33 0 C33 0.66 33 1.32 33 2 C34.32 2 35.64 2 37 2 C37.33 1.34 37.66 0.68 38 0 C38.66 0.66 39.32 1.32 40 2 C36.29741227 4.46839182 34.40022696 4.20750426 30 4.125 C28.7625 4.10695313 27.525 4.08890625 26.25 4.0703125 C25.1775 4.04710937 24.105 4.02390625 23 4 C22.01 4 21.02 4 20 4 C19.67 3.67 19.34 3.34 19 3 C16.98405418 2.76572222 14.961526 2.58663876 12.9375 2.4375 C11.83277344 2.35371094 10.72804687 2.26992188 9.58984375 2.18359375 C8.73519531 2.12300781 7.88054687 2.06242187 7 2 C7 2.66 7 3.32 7 4 C4.36 4 1.72 4 -1 4 C-0.01 3.34 0.98 2.68 2 2 C1.34 1.34 0.68 0.68 0 0 Z " fill="#7596BB" transform="translate(216,400)"/>
<path d="M0 0 C0.66 0 1.32 0 2 0 C1.45912682 3.78611227 -0.11722332 5.55400767 -3 8 C-3.66 8 -4.32 8 -5 8 C-5 8.66 -5 9.32 -5 10 C-5.99 10 -6.98 10 -8 10 C-8.33 10.99 -8.66 11.98 -9 13 C-10.5234375 14.421875 -10.5234375 14.421875 -12.375 15.75 C-12.98085938 16.19859375 -13.58671875 16.6471875 -14.2109375 17.109375 C-16 18 -16 18 -19 17 C-19.66 17.66 -20.32 18.32 -21 19 C-21.99 18.67 -22.98 18.34 -24 18 C-22.43902526 16.8936781 -20.87614673 15.79004215 -19.3125 14.6875 C-18.00732422 13.76517578 -18.00732422 13.76517578 -16.67578125 12.82421875 C-14 11 -14 11 -11.23046875 9.39453125 C-8.8800692 8.19456815 -8.8800692 8.19456815 -8 6 C-6.33720673 4.9935725 -4.67016516 3.99414593 -3 3 C-2.443125 2.443125 -1.88625 1.88625 -1.3125 1.3125 C-0.879375 0.879375 -0.44625 0.44625 0 0 Z " fill="#98B0CB" transform="translate(331,331)"/>
<path d="M0 0 C1.89692143 0.45380895 3.79249595 0.91324992 5.6875 1.375 C6.74324219 1.63023437 7.79898437 1.88546875 8.88671875 2.1484375 C12 3 12 3 14.70703125 4.1015625 C17.05508929 5.18240898 17.05508929 5.18240898 20 5 C21.67099977 5.31088368 23.33871537 5.64080332 25 6 C24.67 7.32 24.34 8.64 24 10 C15.46169136 8.83079017 7.03984533 7.19100838 -1 4 C-1.33 3.34 -1.66 2.68 -2 2 C-1.01 2 -0.02 2 1 2 C0.67 1.34 0.34 0.68 0 0 Z " fill="#829BBC" transform="translate(272,296)"/>
<path d="M0 0 C2 0 4 0 6 0 C5.25 2.4375 5.25 2.4375 4 5 C1.875 5.8125 1.875 5.8125 0 6 C0 6.66 0 7.32 0 8 C-1.96498322 9.38442 -3.97048465 10.71203834 -6 12 C-6.928125 12.8353125 -6.928125 12.8353125 -7.875 13.6875 C-11.11904713 15.69117617 -14.221889 15.68515742 -18 16 C-17.67 15.34 -17.34 14.68 -17 14 C-16.34 14 -15.68 14 -15 14 C-15 13.34 -15 12.68 -15 12 C-13.35 11.34 -11.7 10.68 -10 10 C-10 9.34 -10 8.68 -10 8 C-9.2575 7.855625 -8.515 7.71125 -7.75 7.5625 C-5.47972261 7.09812508 -3.24240521 6.58136431 -1 6 C-1.309375 5.071875 -1.309375 5.071875 -1.625 4.125 C-1.74875 3.42375 -1.8725 2.7225 -2 2 C-1.34 1.34 -0.68 0.68 0 0 Z " fill="#95ACC8" transform="translate(332,343)"/>
<path d="M0 0 C1.32 0.66 2.64 1.32 4 2 C-6.0340734 8.19123678 -16.5386954 10.01712399 -28 12 C-27.67 10.68 -27.34 9.36 -27 8 C-26.43079834 7.88930176 -25.86159668 7.77860352 -25.27514648 7.66455078 C-22.66197597 7.15449556 -20.04974335 6.63978171 -17.4375 6.125 C-16.54224609 5.95097656 -15.64699219 5.77695312 -14.72460938 5.59765625 C-9.73330458 4.61036519 -4.86783989 3.48238746 0 2 C0 1.34 0 0.68 0 0 Z " fill="#87A0C0" transform="translate(335,294)"/>
<path d="M0 0 C-1.3759199 4.46392194 -3.33152884 6.48116543 -7 9.3125 C-7.886875 10.00988281 -8.77375 10.70726562 -9.6875 11.42578125 C-12 13 -12 13 -14 13 C-14.33 13.99 -14.66 14.98 -15 16 C-17.72265625 17.16796875 -17.72265625 17.16796875 -21.0625 18.1875 C-22.16722656 18.53167969 -23.27195312 18.87585938 -24.41015625 19.23046875 C-25.26480469 19.48441406 -26.11945313 19.73835938 -27 20 C-26 17 -26 17 -23.8203125 15.8671875 C-22.93085938 15.53976562 -22.04140625 15.21234375 -21.125 14.875 C-20.24070312 14.54242188 -19.35640625 14.20984375 -18.4453125 13.8671875 C-16.63681895 13.22583675 -14.82037956 12.60679319 -13 12 C-12.85433594 11.39542969 -12.70867187 10.79085938 -12.55859375 10.16796875 C-11.80331795 7.23665359 -10.36411714 6.23120796 -8.0625 4.3125 C-7.35222656 3.71050781 -6.64195312 3.10851562 -5.91015625 2.48828125 C-3.80554985 0.84849589 -2.68917384 0 0 0 Z " fill="#95ADC9" transform="translate(478,375)"/>
<path d="M0 0 C5.66327008 0.83618753 11.18777505 2.168414 16.75 3.5 C17.70777344 3.72558594 18.66554687 3.95117188 19.65234375 4.18359375 C20.56628906 4.40144531 21.48023438 4.61929687 22.421875 4.84375 C23.25299805 5.04162109 24.08412109 5.23949219 24.94042969 5.44335938 C27 6 27 6 29 7 C28.67 7.99 28.34 8.98 28 10 C22.47876448 9.24710425 22.47876448 9.24710425 20.0625 8 C17.91838486 6.81494302 17.91838486 6.81494302 14.9375 6.6875 C9.50402679 5.73879833 4.92705056 3.41452207 0 1 C0 0.67 0 0.34 0 0 Z " fill="#6D8DB4" transform="translate(157,387)"/>
<path d="M0 0 C1.32 0 2.64 0 4 0 C4.3689719 7.31110994 3.81552726 13.21256822 1 20 C0.67 20 0.34 20 0 20 C0 16.04 0 12.08 0 8 C-0.99 7.67 -1.98 7.34 -3 7 C-3 6.34 -3 5.68 -3 5 C-2.34 5 -1.68 5 -1 5 C-0.67 3.35 -0.34 1.7 0 0 Z " fill="#7A96B9" transform="translate(484,341)"/>
<path d="M0 0 C1.65 1.65 3.3 3.3 5 5 C5.66 4.34 6.32 3.68 7 3 C8.04559253 9.58723293 7.83292414 14.59233959 6 21 C5.34 21 4.68 21 4 21 C3.875 14.25 3.875 14.25 5 12 C4.34 12 3.68 12 3 12 C2.01 8.04 1.02 4.08 0 0 Z " fill="#7390B6" transform="translate(340,420)"/>
<path d="M0 0 C0.5775 0.20625 1.155 0.4125 1.75 0.625 C1.09 0.625 0.43 0.625 -0.25 0.625 C-0.58 1.615 -0.91 2.605 -1.25 3.625 C-3.24609375 4.57421875 -3.24609375 4.57421875 -5.6875 5.3125 C-6.49058594 5.56386719 -7.29367187 5.81523437 -8.12109375 6.07421875 C-10.25 6.625 -10.25 6.625 -12.25 6.625 C-12.58 6.295 -12.91 5.965 -13.25 5.625 C-14.24 6.285 -15.23 6.945 -16.25 7.625 C-17.57 7.625 -18.89 7.625 -20.25 7.625 C-20.25 6.965 -20.25 6.305 -20.25 5.625 C-21.9 5.625 -23.55 5.625 -25.25 5.625 C-25.25 5.295 -25.25 4.965 -25.25 4.625 C-24.69538086 4.54459473 -24.14076172 4.46418945 -23.56933594 4.38134766 C-21.04512602 4.01132023 -18.52261061 3.63077141 -16 3.25 C-15.12730469 3.12367188 -14.25460937 2.99734375 -13.35546875 2.8671875 C-12.51113281 2.73828125 -11.66679687 2.609375 -10.796875 2.4765625 C-10.02182617 2.36135254 -9.24677734 2.24614258 -8.44824219 2.12744141 C-6.19609718 1.70460308 -6.19609718 1.70460308 -4.10644531 0.54833984 C-2.25 -0.375 -2.25 -0.375 0 0 Z " fill="#7994B8" transform="translate(327.25,285.375)"/>
<path d="M0 0 C0 0.66 0 1.32 0 2 C-2.56213554 2.64730804 -5.12468485 3.29289288 -7.6875 3.9375 C-8.40873047 4.11990234 -9.12996094 4.30230469 -9.87304688 4.49023438 C-13.56827248 5.41825907 -17.25345469 6.29798461 -21 7 C-21.33 6.01 -21.66 5.02 -22 4 C-15.12197424 0.31534334 -7.71840886 -0.15751855 0 0 Z " fill="#88A2C2" transform="translate(288,395)"/>
<path d="M0 0 C0.66 0.66 1.32 1.32 2 2 C-1.32028872 4.68321301 -4.65865026 7.34307432 -8 10 C-8.55075195 10.44359863 -9.10150391 10.88719727 -9.66894531 11.34423828 C-11.37653367 12.71760636 -13.09354654 14.07839624 -14.8125 15.4375 C-15.35092529 15.87433105 -15.88935059 16.31116211 -16.4440918 16.76123047 C-19.57772491 19.21743941 -22.01453507 20.59482334 -26 21 C-22.96606031 17.73268033 -19.69842881 15.4656192 -16 13 C-14.9171875 11.88625 -14.9171875 11.88625 -13.8125 10.75 C-12 9 -12 9 -9 9 C-8.67 8.01 -8.34 7.02 -8 6 C-6.35666496 4.96210419 -4.68756133 3.96432076 -3 3 C-1.24850835 1.41754725 -1.24850835 1.41754725 0 0 Z " fill="#88A2C1" transform="translate(344,350)"/>
<path d="M0 0 C0.99 0 1.98 0 3 0 C2.52195014 5.45983264 0.53834121 8.8836659 -2.4375 13.3125 C-3.04948242 14.26092773 -3.04948242 14.26092773 -3.67382812 15.22851562 C-6.71524591 19.85762295 -6.71524591 19.85762295 -9 21 C-8.34 19.02 -7.68 17.04 -7 15 C-7.66 14.67 -8.32 14.34 -9 14 C-7.71937515 12.2925002 -6.38232443 10.62626404 -5 9 C-4.34 9 -3.68 9 -3 9 C-2.01 6.03 -1.02 3.06 0 0 Z " fill="#7894B8" transform="translate(361,302)"/>
<path d="M0 0 C2.64 0 5.28 0 8 0 C8 0.66 8 1.32 8 2 C15.92 1.505 15.92 1.505 24 1 C24 1.33 24 1.66 24 2 C15.32910197 4.33447255 6.89543642 4.19865739 -2 4 C-1.34 2.68 -0.68 1.36 0 0 Z " fill="#8EA4C2" transform="translate(229,390)"/>
<path d="M0 0 C3.24751995 0.58852436 4.96716699 1.57988488 7.375 3.8125 C10.42929165 6.55014802 13.53856904 8.80494622 17 11 C14.35258834 11.98052284 13.17553789 12.05565835 10.4375 11.1875 C8 10 8 10 5 8 C5 7.34 5 6.68 5 6 C4.360625 5.7525 3.72125 5.505 3.0625 5.25 C1 4 1 4 0.25 1.875 C0.1675 1.25625 0.085 0.6375 0 0 Z " fill="#3E699D" transform="translate(255,271)"/>
<path d="M0 0 C3 2 3 2 3.765625 3.7109375 C4.09058567 6.88472007 3.46446336 9.52198757 2.75 12.625 C2.49734375 13.77226562 2.2446875 14.91953125 1.984375 16.1015625 C1 19 1 19 -2 21 C-1.49656013 13.97326485 -0.95812032 6.98059091 0 0 Z " fill="#306099" transform="translate(372,230)"/>
<path d="M0 0 C0.99 0.495 0.99 0.495 2 1 C2 1.66 2 2.32 2 3 C2.66 3 3.32 3 4 3 C6.71942083 5.24647808 8.23401509 7.98310912 10 11 C10.53625 11.680625 11.0725 12.36125 11.625 13.0625 C13.05021833 15.07076219 13.57066644 16.59573204 14 19 C9.98519575 17.47869525 8.29509917 15.02701459 5.875 11.5625 C5.19179688 10.59441406 4.50859375 9.62632812 3.8046875 8.62890625 C0 3.08658009 0 3.08658009 0 0 Z " fill="#9BAFCA" transform="translate(367,123)"/>
<path d="M0 0 C0.33 0 0.66 0 1 0 C1.66 7.26 2.32 14.52 3 22 C-1 20 -1 20 -2.25 17.6875 C-3.00511726 14.98166314 -3.1595955 12.79292118 -3 10 C-2.01 11.32 -1.02 12.64 0 14 C0 9.38 0 4.76 0 0 Z " fill="#6689B2" transform="translate(373,210)"/>
<path d="M0 0 C0.66 0 1.32 0 2 0 C-1.42938312 9.23295455 -1.42938312 9.23295455 -5.6875 11.3125 C-6.450625 11.539375 -7.21375 11.76625 -8 12 C-8 11.34 -8 10.68 -8 10 C-9.98 10.33 -11.96 10.66 -14 11 C-11.23151768 8.6509847 -8.49628594 6.66260577 -5.3125 4.9375 C-1.83606769 3.22877121 -1.83606769 3.22877121 0 0 Z " fill="#B5C5D9" transform="translate(338,445)"/>
<path d="M0 0 C3.63 0.33 7.26 0.66 11 1 C11.33 1.99 11.66 2.98 12 4 C14.31 4.33 16.62 4.66 19 5 C19 5.33 19 5.66 19 6 C17.02090602 6.02686553 15.04171029 6.04633375 13.0625 6.0625 C11.96035156 6.07410156 10.85820312 6.08570313 9.72265625 6.09765625 C7 6 7 6 6 5 C3.67182036 4.63239269 1.3381615 4.29758419 -1 4 C-0.67 2.68 -0.34 1.36 0 0 Z M2 2 C2 2.33 2 2.66 2 3 C3.65 3 5.3 3 7 3 C7 2.67 7 2.34 7 2 C5.35 2 3.7 2 2 2 Z " fill="#7E99BC" transform="translate(194,387)"/>
<path d="M0 0 C-1 3 -1 3 -4.16015625 4.82421875 C-5.45600869 5.45553148 -6.75706229 6.07625399 -8.0625 6.6875 C-8.72572266 7.00783203 -9.38894531 7.32816406 -10.07226562 7.65820312 C-11.71050858 8.4478598 -13.35471454 9.22512362 -15 10 C-13.41134345 5.57342515 -12.3103722 4.05722309 -8 2 C-2.63157895 0 -2.63157895 0 0 0 Z " fill="#5579A7" transform="translate(320,357)"/>
<path d="M0 0 C0.33 0.66 0.66 1.32 1 2 C-0.21484375 4.3828125 -0.21484375 4.3828125 -1.9375 7.125 C-2.50339844 8.03507812 -3.06929688 8.94515625 -3.65234375 9.8828125 C-4.09707031 10.58148438 -4.54179687 11.28015625 -5 12 C-5.66 11.34 -6.32 10.68 -7 10 C-7.99 10.33 -8.98 10.66 -10 11 C-7.99155908 6.07019047 -4.35894926 2.90596617 0 0 Z " fill="#8AA4C3" transform="translate(354,316)"/>
<path d="M0 0 C1.65 0 3.3 0 5 0 C5 0.66 5 1.32 5 2 C5.66 2.33 6.32 2.66 7 3 C3.61416198 6.13107836 1.28890538 6.33550778 -3.25 6.1875 C-4.86648438 6.14689453 -4.86648438 6.14689453 -6.515625 6.10546875 C-7.74539063 6.05326172 -7.74539063 6.05326172 -9 6 C-6.08235 4.0549 -4.37462715 3.54723683 -1 3 C-0.67 2.01 -0.34 1.02 0 0 Z " fill="#7A97BA" transform="translate(445,390)"/>
<path d="M0 0 C2.46104938 0.25448807 4.91743305 0.52772719 7.375 0.8125 C8.07367188 0.88275391 8.77234375 0.95300781 9.4921875 1.02539062 C11.34332338 1.24788292 13.17538205 1.61662522 15 2 C15.99 3.485 15.99 3.485 17 5 C10.59370576 5.20852314 5.07027358 5.1583195 -1 3 C-0.67 2.01 -0.34 1.02 0 0 Z " fill="#7492B7" transform="translate(286,288)"/>
<path d="M0 0 C3.63 0.33 7.26 0.66 11 1 C11.33 2.32 11.66 3.64 12 5 C8.37 5 4.74 5 1 5 C1.33 3.68 1.66 2.36 2 1 C1.34 0.67 0.68 0.34 0 0 Z " fill="#38659C" transform="translate(295,301)"/>
<path d="M0 0 C0 0.66 0 1.32 0 2 C-4.23798336 5.45277325 -8.49897163 7.58742287 -14 8 C-12.56684975 4.38226397 -10.95412036 3.030893 -7.5625 1.1875 C-6.78003906 0.74792969 -5.99757813 0.30835938 -5.19140625 -0.14453125 C-3 -1 -3 -1 0 0 Z " fill="#A2B6CE" transform="translate(341,279)"/>
<path d="M0 0 C0 0.66 0 1.32 0 2 C-0.66 2 -1.32 2 -2 2 C-2.268125 2.763125 -2.53625 3.52625 -2.8125 4.3125 C-3.94424112 6.87380884 -4.91223401 8.19692938 -7 10 C-8.32 9.34 -9.64 8.68 -11 8 C-10.67 7.01 -10.34 6.02 -10 5 C-9.34 5 -8.68 5 -8 5 C-8 4.34 -8 3.68 -8 3 C-2.25 0 -2.25 0 0 0 Z " fill="#A4B9D1" transform="translate(361,273)"/>
<path d="M0 0 C2 0 4 0 6 0 C5.25 2.4375 5.25 2.4375 4 5 C1.875 5.8125 1.875 5.8125 0 6 C0 6.66 0 7.32 0 8 C-1.32 8.33 -2.64 8.66 -4 9 C-4 8.01 -4 7.02 -4 6 C-3.01 6 -2.02 6 -1 6 C-1.309375 5.071875 -1.309375 5.071875 -1.625 4.125 C-1.810625 3.073125 -1.810625 3.073125 -2 2 C-1.34 1.34 -0.68 0.68 0 0 Z " fill="#9DB2CC" transform="translate(332,343)"/>
<path d="M0 0 C2.24151882 2.24151882 2.96301325 4.0067112 4.125 6.9375 C4.47820312 7.81277344 4.83140625 8.68804687 5.1953125 9.58984375 C6 12 6 12 6 15 C5.01 15 4.02 15 3 15 C-1.46015566 7.6302149 -1.46015566 7.6302149 -0.75 3 C-0.5025 2.01 -0.255 1.02 0 0 Z " fill="#708DB4" transform="translate(243,247)"/>
<path d="M0 0 C0.66 0 1.32 0 2 0 C2.13277344 0.71027344 2.26554687 1.42054688 2.40234375 2.15234375 C2.57894531 3.07144531 2.75554687 3.99054688 2.9375 4.9375 C3.11152344 5.85402344 3.28554688 6.77054688 3.46484375 7.71484375 C3.77714988 9.95289844 3.77714988 9.95289844 5 11 C5.14115161 13.67058851 5.04247107 16.32432238 5 19 C3.68 19 2.36 19 1 19 C1.01160156 18.13117188 1.02320313 17.26234375 1.03515625 16.3671875 C1.04417969 15.21476563 1.05320312 14.06234375 1.0625 12.875 C1.07990234 11.16957031 1.07990234 11.16957031 1.09765625 9.4296875 C1.005327 6.1870844 0.61389906 3.18067388 0 0 Z " fill="#829CBD" transform="translate(389,199)"/>
<path d="M0 0 C0 0.66 0 1.32 0 2 C4.455 1.505 4.455 1.505 9 1 C5.1533912 4.8466088 -0.21908174 4.05641991 -5.375 4.0625 C-7.25004775 4.04653244 -9.12508307 4.02730462 -11 4 C-11 3.34 -11 2.68 -11 2 C-9.5422647 1.664061 -8.08378894 1.33133376 -6.625 1 C-5.40683594 0.7215625 -5.40683594 0.7215625 -4.1640625 0.4375 C-2 0 -2 0 0 0 Z " fill="#9BB0CB" transform="translate(248,374)"/>
<path d="M0 0 C0.53625 0.2475 1.0725 0.495 1.625 0.75 C-1.59346562 4.33629026 -3.53176894 6.25325835 -8.375 6.75 C-9.71042939 7.07483418 -11.04461551 7.4050855 -12.375 7.75 C-4.71746575 -0.49657534 -4.71746575 -0.49657534 0 0 Z " fill="#8AA3C3" transform="translate(319.375,342.25)"/>
<path d="M0 0 C5.32284006 5.32284006 6.42656725 15.68873241 7 23 C6.34 23 5.68 23 5 23 C4.65066406 21.73542969 4.30132812 20.47085938 3.94140625 19.16796875 C3.48181183 17.50780115 3.02217416 15.84764552 2.5625 14.1875 C2.33240234 13.35412109 2.10230469 12.52074219 1.86523438 11.66210938 C1.64287109 10.85966797 1.42050781 10.05722656 1.19140625 9.23046875 C0.98717041 8.49207764 0.78293457 7.75368652 0.57250977 6.99291992 C0.0907348 5.31584998 -0.44821465 3.65535604 -1 2 C-0.67 1.34 -0.34 0.68 0 0 Z " fill="#8CA5C3" transform="translate(380,185)"/>
<path d="M0 0 C0.94875 0.04125 1.8975 0.0825 2.875 0.125 C3.205 1.115 3.535 2.105 3.875 3.125 C1.875 6.125 1.875 6.125 -1.25 6.8125 C-2.19875 6.915625 -3.1475 7.01875 -4.125 7.125 C-3.795 5.805 -3.465 4.485 -3.125 3.125 C-3.785 2.795 -4.445 2.465 -5.125 2.125 C-3.125 0.125 -3.125 0.125 0 0 Z " fill="#4E77A7" transform="translate(301.125,366.875)"/>
<path d="M0 0 C0.66 0 1.32 0 2 0 C0.59023295 3.03852705 -1.08870228 5.5939595 -3.125 8.25 C-3.66382813 8.95640625 -4.20265625 9.6628125 -4.7578125 10.390625 C-5.16773438 10.92171875 -5.57765625 11.4528125 -6 12 C-8 10 -8 10 -9 8 C-8.195625 7.38125 -7.39125 6.7625 -6.5625 6.125 C-3.96125481 4.25835959 -3.96125481 4.25835959 -3 2 C-2.01 2 -1.02 2 0 2 C0 1.34 0 0.68 0 0 Z " fill="#95ACC9" transform="translate(365,332)"/>
<path d="M0 0 C3.91593446 0.78318689 7.36406635 2.39179858 11 4 C11 4.99 11 5.98 11 7 C6.43545749 6.45660208 3.0271824 5.20536179 -1 3 C-0.67 2.01 -0.34 1.02 0 0 Z " fill="#6586AF" transform="translate(272,283)"/>
<path d="M0 0 C0.92321855 3.03905386 1.02162761 5.39994788 0.66015625 8.546875 C0.56669922 9.39121094 0.47324219 10.23554688 0.37695312 11.10546875 C0.27318359 11.97816406 0.16941406 12.85085937 0.0625 13.75 C-0.03740234 14.63816406 -0.13730469 15.52632812 -0.24023438 16.44140625 C-0.48715401 18.62840871 -0.74061635 20.81444667 -1 23 C-1.33 23 -1.66 23 -2 23 C-2.33 16.4 -2.66 9.8 -3 3 C-2.01 3 -1.02 3 0 3 C0 2.01 0 1.02 0 0 Z " fill="#7895B9" transform="translate(242,212)"/>
<path d="M0 0 C0.66 0.33 1.32 0.66 2 1 C0.9171875 1.8353125 0.9171875 1.8353125 -0.1875 2.6875 C-3.02585732 4.93508304 -3.02585732 4.93508304 -5.4375 7.5 C-8.15148119 10.14778653 -10.80070948 11.99114316 -14 14 C-14.66 13.67 -15.32 13.34 -16 13 C-15.01 12.67 -14.02 12.34 -13 12 C-13 11.34 -13 10.68 -13 10 C-10.8664718 8.21229093 -8.73155942 6.53127176 -6.5 4.875 C-5.87996094 4.40707031 -5.25992187 3.93914062 -4.62109375 3.45703125 C-3.08497483 2.29903391 -1.54301941 1.14878643 0 0 Z " fill="#87A2C2" transform="translate(342,357)"/>
<path d="M0 0 C0 0.66 0 1.32 0 2 C1.32 2 2.64 2 4 2 C4.33 1.34 4.66 0.68 5 0 C5.66 0.66 6.32 1.32 7 2 C3.36804504 4.42130331 1.61650652 4.21022785 -2.6875 4.125 C-3.86699219 4.10695313 -5.04648438 4.08890625 -6.26171875 4.0703125 C-7.16535156 4.04710937 -8.06898438 4.02390625 -9 4 C-8.34 3.67 -7.68 3.34 -7 3 C-7 2.34 -7 1.68 -7 1 C-4.53721199 -0.231394 -2.7204945 -0.07159196 0 0 Z " fill="#8FA7C4" transform="translate(249,400)"/>
<path d="M0 0 C3.91606575 0.53400897 6.39338934 1.19669467 10 3 C3.73 3 -2.54 3 -9 3 C-9.33 2.34 -9.66 1.68 -10 1 C-2.25 0.875 -2.25 0.875 0 2 C0 1.34 0 0.68 0 0 Z " fill="#98AFCA" transform="translate(227,376)"/>
<path d="M0 0 C4.57974939 1.25943108 8.14559127 3.19629304 12.0703125 5.78125 C13.99426658 6.99637889 15.94981046 8.01590902 18 9 C17.67 9.66 17.34 10.32 17 11 C12.80591769 9.5137853 9.37332677 7.41721984 5.6875 4.9375 C4.61886719 4.22464844 3.55023438 3.51179688 2.44921875 2.77734375 C1.64097656 2.19082031 0.83273438 1.60429687 0 1 C0 0.67 0 0.34 0 0 Z " fill="#96ABC7" transform="translate(133,363)"/>
<path d="M0 0 C0.99 0.33 1.98 0.66 3 1 C2.34 1 1.68 1 1 1 C1 1.66 1 2.32 1 3 C-3.84142511 6.94958365 -9.01311416 8.43820369 -15 10 C-12.87089834 7.66528416 -10.92482665 6.31853819 -8.0625 5 C-5.65351509 3.85727639 -3.80180029 2.84465428 -1.6875 1.1875 C-1.130625 0.795625 -0.57375 0.40375 0 0 Z " fill="#A0B2CB" transform="translate(311,352)"/>
<path d="M0 0 C0.66 0 1.32 0 2 0 C0.78065514 4.03321763 -0.55954927 7.54269479 -3 11 C-3.66 11 -4.32 11 -5 11 C-5 11.66 -5 12.32 -5 13 C-5.66 13 -6.32 13 -7 13 C-7 9 -7 9 -4.625 6.5 C-3.75875 5.675 -2.8925 4.85 -2 4 C-0.70480005 1.83379456 -0.70480005 1.83379456 0 0 Z " fill="#88A3C3" transform="translate(357,261)"/>
<path d="M0 0 C0.99 0.33 1.98 0.66 3 1 C3.99 1 4.98 1 6 1 C3.65624954 3.34375046 1.71357803 4.07418745 -1.375 5.25 C-2.33148438 5.62640625 -3.28796875 6.0028125 -4.2734375 6.390625 C-7 7 -7 7 -9.3515625 6.109375 C-9.89554687 5.74328125 -10.43953125 5.3771875 -11 5 C-9.93458984 4.58427734 -9.93458984 4.58427734 -8.84765625 4.16015625 C-7.46900391 3.61681641 -7.46900391 3.61681641 -6.0625 3.0625 C-5.14597656 2.70285156 -4.22945313 2.34320313 -3.28515625 1.97265625 C-1.07581467 1.2003782 -1.07581467 1.2003782 0 0 Z " fill="#8BA3C2" transform="translate(461,379)"/>
<path d="M0 0 C5.94 0.66 11.88 1.32 18 2 C17.67 2.66 17.34 3.32 17 4 C11.54230189 4.11138159 6.38490641 3.91657981 1 3 C0.67 2.01 0.34 1.02 0 0 Z " fill="#869EBF" transform="translate(198,374)"/>
<path d="M0 0 C1.79206547 0.14084796 3.58364917 0.28783701 5.375 0.4375 C6.87160156 0.55931641 6.87160156 0.55931641 8.3984375 0.68359375 C11 1 11 1 13 2 C12.67 2.99 12.34 3.98 12 5 C8.24757563 4.48830577 5.33112258 3.78452996 2 2 C1.34 2 0.68 2 0 2 C0 1.34 0 0.68 0 0 Z " fill="#A3B6CE" transform="translate(173,392)"/>
<path d="M0 0 C4.21929116 0.46881013 6.1503639 0.91289423 9 4 C10.97620986 5.04622875 12.9737129 6.05439935 15 7 C15 7.66 15 8.32 15 9 C14.01 9 13.02 9 12 9 C12 8.34 12 7.68 12 7 C11.13375 6.7525 10.2675 6.505 9.375 6.25 C5.80481983 4.92771105 3.05577189 3.25545068 0 1 C0 0.67 0 0.34 0 0 Z " fill="#99AFC9" transform="translate(126,377)"/>
<path d="M0 0 C2.5 1.375 2.5 1.375 5 3 C5 3.66 5 4.32 5 5 C5.78375 5.28875 6.5675 5.5775 7.375 5.875 C10 7 10 7 12 9 C10.3125 9.75 10.3125 9.75 8 10 C5.375 8.125 5.375 8.125 3 6 C2.34 5.67 1.68 5.34 1 5 C0.375 2.4375 0.375 2.4375 0 0 Z " fill="#6385B0" transform="translate(411,373)"/>
<path d="M0 0 C0.33 0.99 0.66 1.98 1 3 C-2.75 6 -2.75 6 -5 6 C-5.33 6.99 -5.66 7.98 -6 9 C-6.99 8.67 -7.98 8.34 -9 8 C-8.34 6.68 -7.68 5.36 -7 4 C-6.34 4 -5.68 4 -5 4 C-5 3.34 -5 2.68 -5 2 C-3.35 1.34 -1.7 0.68 0 0 Z " fill="#326198" transform="translate(347,345)"/>
<path d="M0 0 C0.99 0.33 1.98 0.66 3 1 C3 4.3 3 7.6 3 11 C2.01 11.33 1.02 11.66 0 12 C0 8.04 0 4.08 0 0 Z " fill="#6E8CB2" transform="translate(399,341)"/>
<path d="M0 0 C0.66 0.33 1.32 0.66 2 1 C-2.18461538 6.78461538 -2.18461538 6.78461538 -6.3125 7.875 C-7.6428125 7.936875 -7.6428125 7.936875 -9 8 C-9.33 9.32 -9.66 10.64 -10 12 C-10.66 11.67 -11.32 11.34 -12 11 C-10.91463814 7.85245061 -10.14559062 7.07596032 -7.125 5.5 C-6.09375 5.005 -5.0625 4.51 -4 4 C-1.68581709 1.93832739 -1.68581709 1.93832739 0 0 Z " fill="#88A2C2" transform="translate(337,333)"/>
<path d="M0 0 C0.66 0.268125 1.32 0.53625 2 0.8125 C5.64939067 2.25705047 9.32245433 3.62871178 13 5 C10 7 10 7 8.078125 6.72265625 C5.95752796 5.98523059 3.84652136 5.24116652 1.75 4.4375 C1.04359375 4.16808594 0.3371875 3.89867187 -0.390625 3.62109375 C-0.92171875 3.41613281 -1.4528125 3.21117187 -2 3 C-1.01 2.67 -0.02 2.34 1 2 C0.67 1.34 0.34 0.68 0 0 Z " fill="#4F75A5" transform="translate(272,296)"/>
<path d="M0 0 C0.33 0.66 0.66 1.32 1 2 C-7.93918919 7.13175676 -7.93918919 7.13175676 -14 7 C-12.53705616 4.07411232 -10.60481841 3.97798081 -7.5625 2.9375 C-3.7115274 1.63412332 -3.7115274 1.63412332 0 0 Z " fill="#134989" transform="translate(464,385)"/>
<path d="M0 0 C0.33 0.99 0.66 1.98 1 3 C0.34 3 -0.32 3 -1 3 C-1.33 2.67 -1.66 2.34 -2 2 C-2.99 2.66 -3.98 3.32 -5 4 C-6.32 4 -7.64 4 -9 4 C-9 3.34 -9 2.68 -9 2 C-10.65 2 -12.3 2 -14 2 C-14 1.67 -14 1.34 -14 1 C-9.27685687 0.22887459 -4.78478822 -0.09764874 0 0 Z " fill="#93AAC6" transform="translate(316,289)"/>
<path d="M0 0 C0.66 0.33 1.32 0.66 2 1 C2.027193 2.58323688 2.04648306 4.16661062 2.0625 5.75 C2.07410156 6.63171875 2.08570313 7.5134375 2.09765625 8.421875 C2.00826198 10.7818838 1.66912821 12.74498524 1 15 C0.34 15 -0.32 15 -1 15 C-1.02715383 13.25008666 -1.04646551 11.50005055 -1.0625 9.75 C-1.07410156 8.77546875 -1.08570313 7.8009375 -1.09765625 6.796875 C-1.01195577 4.34241322 -0.70706066 2.33831086 0 0 Z " fill="#6989B2" transform="translate(392,262)"/>
<path d="M0 0 C2 1 2 1 3.125 4.25 C3.85463482 7.37700635 4.19234975 9.82622905 4 13 C3.01 13 2.02 13 1 13 C0.29826347 8.61414671 -0.10834375 4.44209357 0 0 Z " fill="#5B7DA9" transform="translate(365,212)"/>
<path d="M0 0 C0 0.66 0 1.32 0 2 C-3.82320557 3.42258812 -6.91281305 4.24042276 -11 4 C-11 3.34 -11 2.68 -11 2 C-7.36576791 -0.32590854 -4.22911669 -0.16265833 0 0 Z " fill="#698AB2" transform="translate(288,395)"/>
<path d="M0 0 C0.99 0.33 1.98 0.66 3 1 C2.34 1 1.68 1 1 1 C0.67 1.99 0.34 2.98 0 4 C-2.72265625 5.16796875 -2.72265625 5.16796875 -6.0625 6.1875 C-7.16722656 6.53167969 -8.27195312 6.87585938 -9.41015625 7.23046875 C-10.26480469 7.48441406 -11.11945313 7.73835938 -12 8 C-11 5 -11 5 -8.75 3.8671875 C-7.8425 3.53976562 -6.935 3.21234375 -6 2.875 C-2.74148734 1.86260057 -2.74148734 1.86260057 0 0 Z " fill="#9EB1CD" transform="translate(463,387)"/>
<path d="M0 0 C0.66 0 1.32 0 2 0 C3.1577506 3.47325181 3.06866652 6.36067448 3 10 C2.01 10.33 1.02 10.66 0 11 C0 7.37 0 3.74 0 0 Z " fill="#839CBB" transform="translate(46,231)"/>
<path d="M0 0 C0.66 0.33 1.32 0.66 2 1 C-0.07143201 5.03384128 -1.96615872 6.92856799 -6 9 C-6 8.34 -6 7.68 -6 7 C-6.66 6.67 -7.32 6.34 -8 6 C-5.36 4.02 -2.72 2.04 0 0 Z " fill="#446EA1" transform="translate(329,358)"/>
<path d="M0 0 C0.66 0 1.32 0 2 0 C1.82374165 2.37948772 1.30280227 3.70225849 -0.40234375 5.37890625 C-1.90649092 6.62115486 -3.45129851 7.81376056 -5 9 C-5.33 7.68 -5.66 6.36 -6 5 C-5.01 5 -4.02 5 -3 5 C-2.5359375 4.0409375 -2.5359375 4.0409375 -2.0625 3.0625 C-1 1 -1 1 0 0 Z " fill="#A2B7D0" transform="translate(356,335)"/>
<path d="M0 0 C2.4375 1.4375 2.4375 1.4375 5 4 C5.73151889 6.99304558 5.92773687 9.92553213 6 13 C3.19438607 11.59719304 2.99319493 9.9490995 1.875 7.0625 C1.52179687 6.16660156 1.16859375 5.27070313 0.8046875 4.34765625 C0 2 0 2 0 0 Z " fill="#95ACC9" transform="translate(51,272)"/>
<path d="M0 0 C0.66 0 1.32 0 2 0 C4.20399168 4.55491614 4.58846263 9.02906176 5 14 C0.65757571 9.65757571 0.2555331 5.86448454 0 0 Z " fill="#8DA6C4" transform="translate(48,258)"/>
<path d="M0 0 C1.8871875 0.0309375 1.8871875 0.0309375 3.8125 0.0625 C3.8125 0.7225 3.8125 1.3825 3.8125 2.0625 C1.28774538 3.32487731 -0.49950466 3.16106404 -3.3125 3.125 C-4.22257812 3.11597656 -5.13265625 3.10695313 -6.0703125 3.09765625 C-6.76898438 3.08605469 -7.46765625 3.07445312 -8.1875 3.0625 C-6.45706736 -0.39836529 -3.47359009 -0.0569441 0 0 Z " fill="#034085" transform="translate(448.1875,386.9375)"/>
<path d="M0 0 C3.94463583 3.77312992 3.94463583 3.77312992 4.09765625 7.1640625 C4.08605469 7.97617188 4.07445312 8.78828125 4.0625 9.625 C4.05347656 10.44226563 4.04445313 11.25953125 4.03515625 12.1015625 C4.02355469 12.72804687 4.01195312 13.35453125 4 14 C1.59960958 9.32024725 0 5.32695729 0 0 Z " fill="#94ACC8" transform="translate(389,156)"/>
<path d="M0 0 C4.12751449 0.60698743 7.3321148 2.03810791 11 4 C11 4.66 11 5.32 11 6 C6.64477147 5.49357808 3.55760365 4.61588503 0 2 C0 1.34 0 0.68 0 0 Z " fill="#9EB2CB" transform="translate(151,373)"/>
<path d="M0 0 C0.66 0.33 1.32 0.66 2 1 C1 4 1 4 -1.9375 5.625 C-2.948125 6.07875 -3.95875 6.5325 -5 7 C-5.99 7.495 -5.99 7.495 -7 8 C-7.33 6.68 -7.66 5.36 -8 4 C-6.865625 3.525625 -5.73125 3.05125 -4.5625 2.5625 C-1.24259834 1.36377917 -1.24259834 1.36377917 0 0 Z " fill="#7492B7" transform="translate(312,347)"/>
<path d="M0 0 C0 0.66 0 1.32 0 2 C-2.94386623 3.47193312 -5.37390036 2.84936173 -8.625 2.5625 C-9.81351562 2.46066406 -11.00203125 2.35882813 -12.2265625 2.25390625 C-13.14179688 2.17011719 -14.05703125 2.08632813 -15 2 C-15 1.67 -15 1.34 -15 1 C-13.43784452 0.83013455 -11.8752548 0.66426036 -10.3125 0.5 C-9.44238281 0.4071875 -8.57226562 0.314375 -7.67578125 0.21875 C-5.10276661 0.00840136 -2.58015636 -0.03719144 0 0 Z " fill="#879EBF" transform="translate(313,297)"/>
<path d="M0 0 C0 1.65 0 3.3 0 5 C-1.65 5.66 -3.3 6.32 -5 7 C-5.66 5.68 -6.32 4.36 -7 3 C-2.25 0 -2.25 0 0 0 Z " fill="#8CA6C4" transform="translate(340,284)"/>
<path d="M0 0 C0.99 0.33 1.98 0.66 3 1 C2.51171875 7.0546875 2.51171875 7.0546875 2 9 C1.01 9.66 0.02 10.32 -1 11 C-0.67 7.37 -0.34 3.74 0 0 Z " fill="#839BBC" transform="translate(371,240)"/>
<path d="M0 0 C0.33 0 0.66 0 1 0 C1.125 7.625 1.125 7.625 0 11 C-0.66 11 -1.32 11 -2 11 C-2 8.03 -2 5.06 -2 2 C-1.34 2 -0.68 2 0 2 C0 1.34 0 0.68 0 0 Z " fill="#8FA7C5" transform="translate(48,216)"/>
<path d="M0 0 C1.32 0 2.64 0 4 0 C4 1.32 4 2.64 4 4 C1.35261084 5.4606285 0.10551666 6 -3 6 C-2.625 4.0625 -2.625 4.0625 -2 2 C-1.34 1.67 -0.68 1.34 0 1 C0 0.67 0 0.34 0 0 Z " fill="#97ADC9" transform="translate(297,388)"/>
<path d="M0 0 C-0.75 1.9375 -0.75 1.9375 -2 4 C-4.0625 4.625 -4.0625 4.625 -6 5 C-6.33 5.66 -6.66 6.32 -7 7 C-7.99 6.34 -8.98 5.68 -10 5 C-8.71186658 4.16121545 -7.41936744 3.32913217 -6.125 2.5 C-5.40570313 2.0359375 -4.68640625 1.571875 -3.9453125 1.09375 C-2 0 -2 0 0 0 Z " fill="#9CB1CB" transform="translate(319,360)"/>
<path d="M0 0 C0.33 1.32 0.66 2.64 1 4 C-2 6 -2 6 -4 6 C-5.34882408 6.63474075 -6.6846659 7.29848848 -8 8 C-6.73345454 4.20036361 -5.31088537 2.71162349 -1.8125 0.8125 C-1.214375 0.544375 -0.61625 0.27625 0 0 Z " fill="#4D76A6" transform="translate(347,325)"/>
<path d="M0 0 C2.64 1.65 5.28 3.3 8 5 C3.72190919 6.0695227 2.75775182 5.92965634 -1 4 C-1.33 3.34 -1.66 2.68 -2 2 C-1.34 2 -0.68 2 0 2 C0 1.34 0 0.68 0 0 Z " fill="#7491B6" transform="translate(264,277)"/>
<path d="M0 0 C0.33 0 0.66 0 1 0 C1.63934602 5.11476819 -0.59466453 8.67254378 -3 13 C-3.33 13 -3.66 13 -4 13 C-3.50269348 8.02693484 -2.44697666 4.36200187 0 0 Z " fill="#90A8C6" transform="translate(66,148)"/>
<path d="M0 0 C3.63 0 7.26 0 11 0 C11 0.66 11 1.32 11 2 C6.58937864 3.0257259 4.07369424 3.03684712 0 1 C0 0.67 0 0.34 0 0 Z " fill="#6181AD" transform="translate(428,393)"/>
<path d="M0 0 C0.99 0 1.98 0 3 0 C1.9200311 3.13190982 0.99049526 4.00599212 -1.875 5.8125 C-5.1457197 7.05537349 -5.84860486 7.00271664 -9 6 C-8.43410156 5.73445313 -7.86820312 5.46890625 -7.28515625 5.1953125 C-6.55167969 4.84210938 -5.81820313 4.48890625 -5.0625 4.125 C-4.33160156 3.77695312 -3.60070312 3.42890625 -2.84765625 3.0703125 C-0.83667541 2.1315023 -0.83667541 2.1315023 0 0 Z " fill="#98AEC9" transform="translate(463,382)"/>
<path d="M0 0 C0.33 0 0.66 0 1 0 C1 4.29 1 8.58 1 13 C0.67 13 0.34 13 0 13 C0 11.35 0 9.7 0 8 C-0.99 7.67 -1.98 7.34 -3 7 C-3 6.34 -3 5.68 -3 5 C-2.34 5 -1.68 5 -1 5 C-0.67 3.35 -0.34 1.7 0 0 Z " fill="#8DA6C5" transform="translate(484,341)"/>
<path d="M0 0 C4 5 4 5 8 10 C7.01 10.33 6.02 10.66 5 11 C5 10.34 5 9.68 5 9 C4.01 8.67 3.02 8.34 2 8 C0.04457812 5.01540871 0 3.73585209 0 0 Z " fill="#7794B9" transform="translate(289,441)"/>
<path d="M0 0 C2.64 0 5.28 0 8 0 C7.67 0.99 7.34 1.98 7 3 C4.69 3 2.38 3 0 3 C0 2.01 0 1.02 0 0 Z " fill="#B6C5D9" transform="translate(229,390)"/>
<path d="M0 0 C1.32 0.66 2.64 1.32 4 2 C-0.75 6 -0.75 6 -3 6 C-2.42655063 3.13275314 -2.1385485 2.1385485 0 0 Z " fill="#7693B8" transform="translate(468,381)"/>
<path d="M0 0 C0.66 0.66 1.32 1.32 2 2 C0.57140593 3.03325986 -0.86822383 4.05127634 -2.3125 5.0625 C-3.51326172 5.91521484 -3.51326172 5.91521484 -4.73828125 6.78515625 C-5.48464844 7.18605469 -6.23101562 7.58695312 -7 8 C-7.99 7.67 -8.98 7.34 -10 7 C-6.7 4.69 -3.4 2.38 0 0 Z " fill="#7793B7" transform="translate(328,363)"/>
<path d="M0 0 C0.99 0.66 1.98 1.32 3 2 C1.68775452 5.93673644 0.08089673 8.22719294 -3 11 C-2.34 9.02 -1.68 7.04 -1 5 C-1.66 4.67 -2.32 4.34 -3 4 C-2.01 2.68 -1.02 1.36 0 0 Z " fill="#A2B6CF" transform="translate(355,312)"/>
<path d="M0 0 C0.99 0.33 1.98 0.66 3 1 C2.67 5.29 2.34 9.58 2 14 C1.67 14 1.34 14 1 14 C0.67 9.38 0.34 4.76 0 0 Z " fill="#6F8DB4" transform="translate(385,208)"/>
<path d="M0 0 C1.98 0 3.96 0 6 0 C6.33 1.32 6.66 2.64 7 4 C4.36 4 1.72 4 -1 4 C-0.01 3.34 0.98 2.68 2 2 C1.34 1.34 0.68 0.68 0 0 Z " fill="#88A3C3" transform="translate(216,400)"/>
<path d="M0 0 C0.66 0.33 1.32 0.66 2 1 C-0.41556126 4.19199167 -2.68003538 6.74716687 -6 9 C-6.66 8.67 -7.32 8.34 -8 8 C-5.33333333 5.33333333 -2.66666667 2.66666667 0 0 Z " fill="#074286" transform="translate(343,353)"/>
<path d="M0 0 C0.66 0.33 1.32 0.66 2 1 C1.34 2.32 0.68 3.64 0 5 C-0.66 5 -1.32 5 -2 5 C-2.33 5.99 -2.66 6.98 -3 8 C-3.66 7.67 -4.32 7.34 -5 7 C-2.25 1.125 -2.25 1.125 0 0 Z " fill="#6588B1" transform="translate(357,341)"/>
<path d="M0 0 C2 2 2 2 2.1953125 3.9453125 C2.13020833 5.96354167 2.06510417 7.98177083 2 10 C1.34 10 0.68 10 0 10 C-1.125 2.25 -1.125 2.25 0 0 Z " fill="#547AA8" transform="translate(481,336)"/>
<path d="M0 0 C0.99 0.33 1.98 0.66 3 1 C-1.75 5 -1.75 5 -4 5 C-4 5.66 -4 6.32 -4 7 C-4.99 7.33 -5.98 7.66 -7 8 C-7 7.01 -7 6.02 -7 5 C-5.68 4.67 -4.36 4.34 -3 4 C-3 3.34 -3 2.68 -3 2 C-2.01 2 -1.02 2 0 2 C0 1.34 0 0.68 0 0 Z " fill="#2D5C94" transform="translate(344,277)"/>
<path d="M0 0 C1.8871875 0.0309375 1.8871875 0.0309375 3.8125 0.0625 C3.4825 0.7225 3.1525 1.3825 2.8125 2.0625 C1.03515625 2.546875 1.03515625 2.546875 -1.125 2.8125 C-1.83527344 2.91046875 -2.54554688 3.0084375 -3.27734375 3.109375 C-5.1875 3.0625 -5.1875 3.0625 -7.1875 1.0625 C-4.43671116 0.14557039 -2.82801087 -0.04636083 0 0 Z " fill="#5D7EAA" transform="translate(264.1875,399.9375)"/>
<path d="M0 0 C0.33 0.66 0.66 1.32 1 2 C1.763125 1.979375 2.52625 1.95875 3.3125 1.9375 C6 2 6 2 9 3 C9 3.66 9 4.32 9 5 C1.25 4.125 1.25 4.125 -1 3 C-0.67 2.01 -0.34 1.02 0 0 Z " fill="#92A9C6" transform="translate(187,395)"/>
<path d="M0 0 C2.84550012 0.66010476 5.52325999 1.51724966 8.25 2.5625 C8.95640625 2.83191406 9.6628125 3.10132813 10.390625 3.37890625 C10.92171875 3.58386719 11.4528125 3.78882813 12 4 C8.52128379 5.15957207 7.65780355 4.77456651 4.3125 3.5625 C3.50425781 3.27503906 2.69601563 2.98757813 1.86328125 2.69140625 C1.24839844 2.46324219 0.63351563 2.23507812 0 2 C0 1.34 0 0.68 0 0 Z " fill="#849CBC" transform="translate(167,365)"/>
<path d="M0 0 C0.33 0.66 0.66 1.32 1 2 C-1.17508418 6.69360269 -1.17508418 6.69360269 -4.1875 7.8125 C-4.785625 7.874375 -5.38375 7.93625 -6 8 C-3.375 2.25 -3.375 2.25 0 0 Z " fill="#255994" transform="translate(354,316)"/>
<path d="M0 0 C0.66 0.33 1.32 0.66 2 1 C2 2.32 2 3.64 2 5 C-1.75 6.125 -1.75 6.125 -4 5 C-4 4.34 -4 3.68 -4 3 C-3.01 2.67 -2.02 2.34 -1 2 C-0.67 1.34 -0.34 0.68 0 0 Z " fill="#5274A1" transform="translate(349,280)"/>
<path d="M0 0 C0.99 0 1.98 0 3 0 C2.67 1.98 2.34 3.96 2 6 C0.68 6.33 -0.64 6.66 -2 7 C-1.125 2.25 -1.125 2.25 0 0 Z " fill="#4F77A7" transform="translate(243,204)"/>
<path d="M0 0 C-1.45264038 0.8638129 -2.9123163 1.71580454 -4.375 2.5625 C-5.59316406 3.27599609 -5.59316406 3.27599609 -6.8359375 4.00390625 C-7.55007812 4.33261719 -8.26421875 4.66132812 -9 5 C-9.66 4.67 -10.32 4.34 -11 4 C-7.9178096 0.4611888 -4.70112403 -2.35056201 0 0 Z " fill="#A8BBD2" transform="translate(146,72)"/>
<path d="M0 0 C-1.01176437 3.40320742 -1.64843582 4.75725331 -4.625 6.8125 C-5.40875 7.204375 -6.1925 7.59625 -7 8 C-7 5 -7 5 -4.625 2.3125 C-2 0 -2 0 0 0 Z " fill="#A0B6CF" transform="translate(340,445)"/>
<path d="M0 0 C0.66 0 1.32 0 2 0 C1.52797514 4.24822374 -0.96655518 6.19989709 -4 9 C-3.35494404 5.51669784 -2.01782732 2.90567134 0 0 Z " fill="#90AAC8" transform="translate(475,367)"/>
<path d="M0 0 C0.66 0 1.32 0 2 0 C1.45773019 3.79588866 -0.20127563 5.47211993 -3 8 C-3.66 7.67 -4.32 7.34 -5 7 C-3.47793991 4.37098712 -2.15634036 2.15634036 0 0 Z " fill="#A0B5CF" transform="translate(331,331)"/>
<path d="M0 0 C0.99 0 1.98 0 3 0 C2.625 2.9375 2.625 2.9375 2 6 C1.01 6.495 1.01 6.495 0 7 C-1.125 2.25 -1.125 2.25 0 0 Z " fill="#A8BBD2" transform="translate(361,302)"/>
<path d="M0 0 C3.68266103 0.59950296 7.34543185 1.24758891 11 2 C11 2.33 11 2.66 11 3 C7.7 3 4.4 3 1 3 C0.67 2.01 0.34 1.02 0 0 Z " fill="#486EA0" transform="translate(292,297)"/>
<path d="M0 0 C1.32 0.66 2.64 1.32 4 2 C0.55930376 4.29379749 -0.72290301 5 -5 5 C-5 4.34 -5 3.68 -5 3 C-3.35 2.67 -1.7 2.34 0 2 C0 1.34 0 0.68 0 0 Z " fill="#AEBFD5" transform="translate(335,294)"/>
<path d="M0 0 C-0.33 0.99 -0.66 1.98 -1 3 C-1.99 3.33 -2.98 3.66 -4 4 C-4.99 3.34 -5.98 2.68 -7 2 C-7 1.34 -7 0.68 -7 0 C-4.3333581 -1.33332095 -2.83319697 -0.67102033 0 0 Z " fill="#8BA2C1" transform="translate(349,285)"/>
<path d="M0 0 C1.53166168 4.08443115 0.63081652 7.79455657 0 12 C-1.85274014 8.87350101 -2.37198336 6.62683775 -2 3 C-1.34 2.01 -0.68 1.02 0 0 Z " fill="#5D82AD" transform="translate(287,422)"/>
<path d="M0 0 C2.31 0 4.62 0 7 0 C7.33 0.66 7.66 1.32 8 2 C5.36 2.33 2.72 2.66 0 3 C0 2.01 0 1.02 0 0 Z " fill="#8FA5C2" transform="translate(442,385)"/>
<path d="M0 0 C2.64 0 5.28 0 8 0 C7.01 1.485 7.01 1.485 6 3 C3.03 2.505 3.03 2.505 0 2 C0 1.34 0 0.68 0 0 Z " fill="#7893B7" transform="translate(431,385)"/>
<path d="M0 0 C1.84765625 0.33984375 1.84765625 0.33984375 4.0625 0.9375 C5.16271484 1.22947266 5.16271484 1.22947266 6.28515625 1.52734375 C7.13400391 1.76130859 7.13400391 1.76130859 8 2 C7.67 2.66 7.34 3.32 7 4 C1.25 3.25 1.25 3.25 -1 1 C-0.67 0.67 -0.34 0.34 0 0 Z " fill="#94A9C5" transform="translate(170,381)"/>
<path d="M0 0 C1.32 0 2.64 0 4 0 C3.67 1.65 3.34 3.3 3 5 C1.68 4.34 0.36 3.68 -1 3 C-0.67 2.01 -0.34 1.02 0 0 Z " fill="#7E99BB" transform="translate(351,278)"/>
<path d="M0 0 C-2.76223278 2.76223278 -5.20706617 2.57856291 -9 3 C-9.33 2.34 -9.66 1.68 -10 1 C-6.52674819 -0.1577506 -3.63932552 -0.06866652 0 0 Z " fill="#7C99BD" transform="translate(327,456)"/>
<path d="M0 0 C0.99 0 1.98 0 3 0 C2.67 2.31 2.34 4.62 2 7 C1.34 7 0.68 7 0 7 C0 4.69 0 2.38 0 0 Z " fill="#92AAC7" transform="translate(344,434)"/>
<path d="M0 0 C-1.49097658 3.7952131 -3.75700849 5.61042731 -7 8 C-7.33 7.34 -7.66 6.68 -8 6 C-7.34 6 -6.68 6 -6 6 C-5.67 5.01 -5.34 4.02 -5 3 C-2.44444444 0 -2.44444444 0 0 0 Z " fill="#6488B1" transform="translate(294,404)"/>
<path d="M0 0 C0.66 0.33 1.32 0.66 2 1 C2 1.66 2 2.32 2 3 C0.03852126 4.38938077 -1.96166576 5.7260411 -4 7 C-3.43628586 3.73045798 -2.50037734 2.17424117 0 0 Z " fill="#184C8B" transform="translate(334,360)"/>
<path d="M0 0 C0.66 0.33 1.32 0.66 2 1 C1.21625 1.598125 0.4325 2.19625 -0.375 2.8125 C-3.14574323 4.91085249 -3.14574323 4.91085249 -5 8 C-5.66 8 -6.32 8 -7 8 C-5.50902342 4.2047869 -3.24299151 2.38957269 0 0 Z " fill="#99AEC9" transform="translate(342,357)"/>
<path d="M0 0 C0 0.66 0 1.32 0 2 C-1.28745036 2.38922918 -2.58019597 2.76098036 -3.875 3.125 C-4.59429687 3.33382813 -5.31359375 3.54265625 -6.0546875 3.7578125 C-6.69664062 3.83773438 -7.33859375 3.91765625 -8 4 C-8.66 3.34 -9.32 2.68 -10 2 C-6.38026598 0.68373308 -3.90432869 0 0 0 Z " fill="#97AFCB" transform="translate(332,298)"/>
<path d="M0 0 C1.24546405 2.49092811 0.7767578 3.41080733 0 6 C-0.66 6 -1.32 6 -2 6 C-2 6.66 -2 7.32 -2 8 C-2.66 8 -3.32 8 -4 8 C-2.25 2.25 -2.25 2.25 0 0 Z " fill="#9DB1CB" transform="translate(60,164)"/>
<path d="M0 0 C4.455 0.99 4.455 0.99 9 2 C9 2.33 9 2.66 9 3 C6.03 3 3.06 3 0 3 C0 2.01 0 1.02 0 0 Z " fill="#5D82AD" transform="translate(228,376)"/>
<path d="M0 0 C2.34058637 2.12780579 3.70700306 4.11562221 5 7 C4.01 7 3.02 7 2 7 C0.5393715 4.35261084 0 3.10551666 0 0 Z " fill="#7190B6" transform="translate(406,366)"/>
<path d="M0 0 C0.33 0.66 0.66 1.32 1 2 C-3.75 6 -3.75 6 -6 6 C-6 5.01 -6 4.02 -6 3 C-4.02 2.01 -2.04 1.02 0 0 Z " fill="#9BB0CA" transform="translate(335,358)"/>
<path d="M0 0 C1.5 1.375 1.5 1.375 3 3 C3 3.66 3 4.32 3 5 C2.34 5 1.68 5 1 5 C1.33 6.65 1.66 8.3 2 10 C1.34 9.67 0.68 9.34 0 9 C-0.99444068 5.65506316 -1.10348268 3.31044803 0 0 Z " fill="#4C73A4" transform="translate(240,240)"/>
<path d="M0 0 C4.75 0.875 4.75 0.875 7 2 C7 2.66 7 3.32 7 4 C4.03 3.505 4.03 3.505 1 3 C0.67 2.01 0.34 1.02 0 0 Z " fill="#93A9C6" transform="translate(275,89)"/>
</svg>
